<svg xmlns="http://www.w3.org/2000/svg" xmlns:xlink="http://www.w3.org/1999/xlink" viewBox="0 0 296.98 161.73"><defs><pattern id="New_Pattern_Swatch_4" data-name="New Pattern Swatch 4" width="30" height="28.27" patternTransform="matrix(-0.45, -0.68, 0.68, -0.45, 57.47, 255.36)" patternUnits="userSpaceOnUse" viewBox="0 0 30 28.27"><rect width="30" height="28.27" fill="none"/><rect width="30" height="28.27" fill="#b1d5e5"/><circle cx="5.63" cy="4.86" r="3.67" fill="#ffc417"/><circle cx="25.02" cy="14.02" r="3.67" fill="#ffc417"/><circle cx="14.99" cy="14.02" r="3.67" fill="#bed839"/><circle cx="5.53" cy="22.99" r="3.67" fill="#ff99ad"/><circle cx="14.99" cy="22.99" r="3.67" fill="#24adbb"/><circle cx="25.12" cy="4.86" r="3.67" fill="#f46e36"/><circle cx="15.09" cy="4.86" r="3.67" fill="#0076b7"/><circle cx="5.53" cy="14.02" r="3.67" fill="#bb80ef"/><circle cx="25.02" cy="22.99" r="3.67" fill="#bb80ef"/></pattern><pattern id="New_Pattern_Swatch_4-3" data-name="New Pattern Swatch 4" width="30" height="28.27" patternTransform="translate(-36.4 272.04) rotate(-17.15) scale(0.81)" patternUnits="userSpaceOnUse" viewBox="0 0 30 28.27"><rect width="30" height="28.27" fill="none"/><rect width="30" height="28.27" fill="#b1d5e5"/><circle cx="5.63" cy="4.86" r="3.67" fill="#ffc417"/><circle cx="25.02" cy="14.02" r="3.67" fill="#ffc417"/><circle cx="14.99" cy="14.02" r="3.67" fill="#bed839"/><circle cx="5.53" cy="22.99" r="3.67" fill="#ff99ad"/><circle cx="14.99" cy="22.99" r="3.67" fill="#24adbb"/><circle cx="25.12" cy="4.86" r="3.67" fill="#f46e36"/><circle cx="15.09" cy="4.86" r="3.67" fill="#0076b7"/><circle cx="5.53" cy="14.02" r="3.67" fill="#bb80ef"/><circle cx="25.02" cy="22.99" r="3.67" fill="#bb80ef"/></pattern><pattern id="New_Pattern_Swatch_4-5" data-name="New Pattern Swatch 4" width="30" height="28.27" patternTransform="translate(18.54 262.03) rotate(-115.23) scale(0.91)" patternUnits="userSpaceOnUse" viewBox="0 0 30 28.27"><rect width="30" height="28.27" fill="none"/><rect width="30" height="28.27" fill="#b1d5e5"/><circle cx="5.63" cy="4.86" r="3.67" fill="#ffc417"/><circle cx="25.02" cy="14.02" r="3.67" fill="#ffc417"/><circle cx="14.99" cy="14.02" r="3.67" fill="#bed839"/><circle cx="5.53" cy="22.99" r="3.67" fill="#ff99ad"/><circle cx="14.99" cy="22.99" r="3.67" fill="#24adbb"/><circle cx="25.12" cy="4.86" r="3.67" fill="#f46e36"/><circle cx="15.09" cy="4.86" r="3.67" fill="#0076b7"/><circle cx="5.53" cy="14.02" r="3.67" fill="#bb80ef"/><circle cx="25.02" cy="22.99" r="3.67" fill="#bb80ef"/></pattern></defs><title>coastwards-tie</title><g style="isolation:isolate"><g id="Layer_1" data-name="Layer 1"><path d="M1786.89,903.07l-0.36.27c-1.37.72-2.51,1.34-3.59,1.86a116.5,116.5,0,0,1-23.14,8.12l-0.75.19,7,9c2.69,3.46,5.18,6.5,6.69,8.45l0.15,0h36.61Z" transform="translate(-1547.83 -811.48)" fill="#0071bc"/><path d="M1723.22,825.91c-26.71-5-49,.38-59.91,6.52l-0.19.1c-11.08,5-24.29,6.63-29.2,7.1-0.15,1.13-.27,2.26-0.36,3.38-0.8,9.64.55,18.45,4,26.16,5.54,12.33,16.79,22.9,32.55,30.59,25,12.22,58.49,15.51,87.31,8.61a109.35,109.35,0,0,0,21.71-7.6c1-.48,2.08-1,3.37-1.7a99.83,99.83,0,0,0,12.17-7.61,103.64,103.64,0,0,0,11.28-9.55l1.53-1.52C1777.42,842.84,1745.14,830,1723.22,825.91Z" transform="translate(-1547.83 -811.48)" fill="#0071bc"/><path d="M1811.64,885.07l-2.16,2.05c-2.18,2.07-4.45,4.06-6.77,5.93l-5.26,4.25,30.65,4.83Z" transform="translate(-1547.83 -811.48)" fill="#0071bc"/><path d="M1574.34,961.75a12.11,12.11,0,0,1-1.78,6,10.85,10.85,0,0,1-4.58,4,15.24,15.24,0,0,1-6.73,1.43,12.28,12.28,0,0,1-9.83-4.18q-3.59-4.18-3.59-11.79v-1.61a20.16,20.16,0,0,1,1.62-8.37,12.51,12.51,0,0,1,4.67-5.54,12.75,12.75,0,0,1,7-2,13.43,13.43,0,0,1,9.26,3.12,12.45,12.45,0,0,1,4,8.59h-7.61a4.9,4.9,0,0,0-5.63-5.56,4.53,4.53,0,0,0-4.18,2.19q-1.33,2.19-1.39,7v2.3q0,5.21,1.27,7.44a4.62,4.62,0,0,0,4.38,2.23,5.76,5.76,0,0,0,4-1.27,5.48,5.48,0,0,0,1.48-4h7.59Z" transform="translate(-1547.83 -811.48)" fill="#0071bc"/><path d="M1604.77,957.17a19.65,19.65,0,0,1-1.72,8.42,12.94,12.94,0,0,1-4.88,5.64,13.32,13.32,0,0,1-7.21,2,13.51,13.51,0,0,1-7.18-1.91,12.89,12.89,0,0,1-4.88-5.46,19.05,19.05,0,0,1-1.84-8.15v-1.83a19.71,19.71,0,0,1,1.71-8.43,12.9,12.9,0,0,1,4.89-5.64,13.42,13.42,0,0,1,7.25-2,13.29,13.29,0,0,1,7.18,2,13.13,13.13,0,0,1,4.9,5.6,19.14,19.14,0,0,1,1.77,8.32v1.5ZM1597,955.8q0-4.85-1.58-7.36a5,5,0,0,0-4.51-2.51q-5.74,0-6.07,8.85l0,2.39q0,4.78,1.54,7.35a5,5,0,0,0,4.59,2.57,5,5,0,0,0,4.46-2.53Q1597,962,1597,957.3v-1.5Z" transform="translate(-1547.83 -811.48)" fill="#0071bc"/><path d="M1626.23,966.69h-10.46l-1.83,6.08h-8.16l11.61-32.53h7.18l11.7,32.53h-8.2Zm-8.63-6.05h6.81L1621,949.35Z" transform="translate(-1547.83 -811.48)" fill="#0071bc"/><path d="M1654.92,964.12a3.26,3.26,0,0,0-1.19-2.68,14.56,14.56,0,0,0-4.16-2,39.35,39.35,0,0,1-4.87-2q-6.16-3.11-6.16-8.54a7.79,7.79,0,0,1,1.53-4.77,9.94,9.94,0,0,1,4.34-3.22,16.51,16.51,0,0,1,6.31-1.15,14.43,14.43,0,0,1,6.12,1.25,9.76,9.76,0,0,1,4.21,3.56,9.49,9.49,0,0,1,1.5,5.28h-7.61a4,4,0,0,0-1.18-3.08,4.54,4.54,0,0,0-3.21-1.1,5.11,5.11,0,0,0-3.23.93,2.77,2.77,0,0,0,.12,4.63,16.26,16.26,0,0,0,4.59,2.1,27.73,27.73,0,0,1,5.39,2.33q5.13,3,5.13,8.38a8,8,0,0,1-3.13,6.7q-3.13,2.43-8.59,2.44a16.66,16.66,0,0,1-7-1.42,10.56,10.56,0,0,1-4.7-3.89,10.33,10.33,0,0,1-1.58-5.69h7.66a5.07,5.07,0,0,0,1.32,3.85,6.1,6.1,0,0,0,4.27,1.24,4.82,4.82,0,0,0,3-.84A2.79,2.79,0,0,0,1654.92,964.12Z" transform="translate(-1547.83 -811.48)" fill="#0071bc"/><path d="M1691.33,946.29h-9.5v26.47h-7.63V946.29h-9.33v-6.05h26.47v6.05Z" transform="translate(-1547.83 -811.48)" fill="#0071bc"/><path d="M1719.4,960.63l3.63-20.4h7.57l-6.72,32.53H1716l-4.24-18.54-4.15,18.54h-7.9l-6.74-32.53h7.59l3.63,20.4,4.35-20.4H1715Z" transform="translate(-1547.83 -811.48)" fill="#0071bc"/><path d="M1750.63,966.69h-10.46l-1.83,6.08h-8.16l11.61-32.53H1749l11.7,32.53h-8.2Zm-8.63-6.05h6.81l-3.42-11.28Z" transform="translate(-1547.83 -811.48)" fill="#0071bc"/><path d="M1774.75,961.26h-4.13v11.51H1763V940.23h12.46q5.63,0,8.81,2.57a8.79,8.79,0,0,1,3.18,7.25,10.8,10.8,0,0,1-1.34,5.63,9.56,9.56,0,0,1-4.19,3.62l6.61,13.13v0.34h-8.18Zm-4.13-6h4.83a4.26,4.26,0,0,0,3.27-1.18,4.62,4.62,0,0,0,1.1-3.28,4.67,4.67,0,0,0-1.11-3.3,4.23,4.23,0,0,0-3.26-1.2h-4.83v9Z" transform="translate(-1547.83 -811.48)" fill="#0071bc"/><path d="M1792,972.76V940.23h10.2a14.7,14.7,0,0,1,7.55,2,13.58,13.58,0,0,1,5.23,5.52,17,17,0,0,1,1.9,8v1.5a17.11,17.11,0,0,1-1.84,8,13.63,13.63,0,0,1-5.18,5.54,14.36,14.36,0,0,1-7.45,2H1792Zm7.63-26.47v20.44h2.65a5.88,5.88,0,0,0,5-2.4q1.76-2.4,1.76-7.14v-1.41q0-4.71-1.76-7.1a6,6,0,0,0-5.13-2.39h-2.57Z" transform="translate(-1547.83 -811.48)" fill="#0071bc"/><path d="M1837.17,964.12a3.26,3.26,0,0,0-1.19-2.68,14.57,14.57,0,0,0-4.17-2,39.33,39.33,0,0,1-4.87-2q-6.16-3.11-6.16-8.54a7.8,7.8,0,0,1,1.53-4.77,10,10,0,0,1,4.34-3.22,16.52,16.52,0,0,1,6.31-1.15,14.43,14.43,0,0,1,6.12,1.25,9.76,9.76,0,0,1,4.21,3.56,9.48,9.48,0,0,1,1.5,5.28h-7.61a4,4,0,0,0-1.19-3.08,4.54,4.54,0,0,0-3.21-1.1,5.12,5.12,0,0,0-3.23.93,2.77,2.77,0,0,0,.12,4.63,16.26,16.26,0,0,0,4.59,2.1,27.73,27.73,0,0,1,5.39,2.33q5.13,3,5.13,8.38a8,8,0,0,1-3.13,6.7q-3.13,2.43-8.59,2.44a16.66,16.66,0,0,1-7-1.42,10.57,10.57,0,0,1-4.7-3.89,10.32,10.32,0,0,1-1.58-5.69h7.66a5.06,5.06,0,0,0,1.32,3.85,6.1,6.1,0,0,0,4.27,1.24,4.82,4.82,0,0,0,3-.84A2.79,2.79,0,0,0,1837.17,964.12Z" transform="translate(-1547.83 -811.48)" fill="#0071bc"/><path d="M1670.94,906.39l-0.69-.31c-0.54-.24-1.08-0.45-1.61-0.67s-1.28-.51-1.87-0.8c-17-8.31-29.24-19.82-35.29-33.27-3.81-8.47-5.29-18.11-4.42-28.63l0.22-2.46-2.12-.69A26.34,26.34,0,0,1,1615,833.2,74.85,74.85,0,0,0,1553.17,812l-1.64.2-0.47,1.58c-1.44,4.9-4,17.7,2.91,30.67,7.35,13.69,26.58,18.71,42,22.75,6.92,1.81,12.9,3.37,15.67,5.24a32.45,32.45,0,0,1,8.65,8.62c0.84,1.24,1.51,2.3,2,3.25,7.09,12.78,22,40.18,25.64,47.31l0.7,1.37h39.16Zm-102.43-71.67a6.42,6.42,0,1,1,6.42-6.42A6.42,6.42,0,0,1,1568.51,834.72Z" transform="translate(-1547.83 -811.48)" fill="#0071bc"/><g style="mix-blend-mode:multiply"><path d="M1630.13,839.91l-15.25,40.51a0.86,0.86,0,0,1-1.09.5l-6.42-2.34a0.86,0.86,0,0,1-.49-1.16L1625,837.6a0.86,0.86,0,0,1,1.14-.42l3.55,1.65A0.86,0.86,0,0,1,1630.13,839.91Z" transform="translate(-1547.83 -811.48)" fill="url(#New_Pattern_Swatch_4)"/><path d="M1607,881.16l-5.3,36.32,8.9,6.85s8.48-6.34,8.89-6.85-6.7-35-6.7-35" transform="translate(-1547.83 -811.48)" fill="url(#New_Pattern_Swatch_4-3)"/><path d="M1607.59,871.8l11.17,4.06a0.94,0.94,0,0,1,.41,1.47l-4.69,5.9a0.94,0.94,0,0,1-1,.32l-7.27-2.15a0.94,0.94,0,0,1-.67-1l0.79-7.82A0.94,0.94,0,0,1,1607.59,871.8Z" transform="translate(-1547.83 -811.48)" fill="url(#New_Pattern_Swatch_4-5)"/></g></g></g></svg>