<svg xmlns="http://www.w3.org/2000/svg" viewBox="0 0 293.43 167.23"><defs><style>.cls-1{fill:#fff;}.cls-2{fill:none;stroke:#fff;stroke-miterlimit:10;stroke-width:6px;}</style></defs><title>Asset 11</title><g id="Layer_2" data-name="Layer 2"><g id="Layer_1-2" data-name="Layer 1"><path class="cls-1" d="M24.71,17.61A5.07,5.07,0,0,1,14.59,17a5.07,5.07,0,0,1,10.12.59Z"/><path class="cls-2" d="M282.62,91,263.05,74.48A110.33,110.33,0,0,1,251,84.71Z"/><path class="cls-2" d="M234.29,94.7a116.83,116.83,0,0,1-23.24,8.14c4.55,5.86,10.49,13.47,13.21,17h35.32l-21.68-27C236.73,93.5,235.53,94.11,234.29,94.7Z"/><path class="cls-2" d="M237.9,92.88A106.64,106.64,0,0,0,251,84.71"/><path class="cls-2" d="M237.9,92.88"/><path class="cls-2" d="M78.21,31.73"/><path class="cls-2" d="M263.05,74.48c1.15-1.13,2.24-2.22,3.18-3.21C206.86-4.46,134.44,5.32,110.65,18.67c-14,6.27-31.76,7.4-31.76,7.4-.31,2-.53,3.84-.68,5.66"/><path class="cls-2" d="M82.63,60.37c-2.81-6.25-5.5-15.6-4.42-28.64-.88-.21-1.79-.46-2.72-.78a28.69,28.69,0,0,1-11.08-7A72.91,72.91,0,0,0,30.54,5,73.26,73.26,0,0,0,4.6,3.52C3.69,6.63.35,19.32,7.32,32.31,17.51,51.29,54.73,53,64.21,59.41a35.06,35.06,0,0,1,9.32,9.28c.95,1.39,1.62,2.64,2.16,3.6C83,85.55,97.8,112,101.37,119.83h33.07L117.91,93.64C101.77,85.76,89,74.52,82.63,60.37Z"/><path class="cls-2" d="M117.91,93.64"/><path class="cls-2" d="M211.05,102.84"/><path class="cls-2" d="M117.91,93.64c26.42,12.89,61.88,16.7,93.14,9.2"/><path class="cls-1" d="M27.38,156.19a11.87,11.87,0,0,1-3.74,8.12A12.54,12.54,0,0,1,15,167.23a11.72,11.72,0,0,1-11.11-7.08,19.34,19.34,0,0,1-1.63-7.89v-3a19.48,19.48,0,0,1,1.59-8.11,12.2,12.2,0,0,1,4.56-5.41,12.46,12.46,0,0,1,6.86-1.9,12,12,0,0,1,8.44,2.92A12.32,12.32,0,0,1,27.38,145H21.9a8.15,8.15,0,0,0-2-5.06,6.47,6.47,0,0,0-4.69-1.55,6.36,6.36,0,0,0-5.51,2.69q-1.92,2.69-2,7.9v2.88q0,5.28,1.84,8A6.05,6.05,0,0,0,15,162.67a7,7,0,0,0,4.87-1.5q1.63-1.5,2.07-5Z"/><path class="cls-1" d="M57.57,151.37A20.43,20.43,0,0,1,56,159.75a12.74,12.74,0,0,1-18.35,5.54A12.59,12.59,0,0,1,33,159.79a19.77,19.77,0,0,1-1.66-8.24v-1.83a20.25,20.25,0,0,1,1.64-8.4,12.59,12.59,0,0,1,4.63-5.57,12.36,12.36,0,0,1,6.86-1.93,12.1,12.1,0,0,1,11.48,7.41,20.21,20.21,0,0,1,1.65,8.34Zm-5.5-1.7q0-5.41-2-8.29a6.46,6.46,0,0,0-5.64-2.88,6.44,6.44,0,0,0-5.58,2.87q-2,2.87-2.06,8.12v1.88q0,5.36,2,8.29a6.49,6.49,0,0,0,5.64,2.93,6.42,6.42,0,0,0,5.62-2.86q2-2.86,2-8.36Z"/><path class="cls-1" d="M80.32,159.21H68.05l-2.57,7.57H59.77l12-32.53h4.94l12,32.53H82.91ZM69.6,154.65h9.18l-4.59-13.49Z"/><path class="cls-1" d="M108.79,158.4a4,4,0,0,0-1.47-3.31,17.47,17.47,0,0,0-5.3-2.35,25.21,25.21,0,0,1-6.09-2.64q-4.33-2.79-4.33-7.28a8,8,0,0,1,3.12-6.48,12.4,12.4,0,0,1,8.1-2.55,13.38,13.38,0,0,1,5.89,1.25,9.74,9.74,0,0,1,4.07,3.56,9.32,9.32,0,0,1,1.48,5.13h-5.48a5.17,5.17,0,0,0-1.56-4,6.31,6.31,0,0,0-4.45-1.44,6.58,6.58,0,0,0-4.19,1.18,4,4,0,0,0-1.49,3.31,3.59,3.59,0,0,0,1.61,3,18.28,18.28,0,0,0,5.31,2.32,24.13,24.13,0,0,1,5.94,2.57,9.58,9.58,0,0,1,3.28,3.31,8.8,8.8,0,0,1,1,4.37,7.82,7.82,0,0,1-3,6.47q-3,2.4-8.23,2.4a15.12,15.12,0,0,1-6.32-1.31,10.66,10.66,0,0,1-4.48-3.61,9.16,9.16,0,0,1-1.6-5.36h5.5a5.33,5.33,0,0,0,1.78,4.29,7.67,7.67,0,0,0,5.11,1.52,6.65,6.65,0,0,0,4.32-1.2A3.9,3.9,0,0,0,108.79,158.4Z"/><path class="cls-1" d="M142,138.81h-9.87v28h-5.46v-28h-9.79v-4.56H142Z"/><path class="cls-1" d="M171.32,158.74l4.87-24.49h5.46l-7.31,32.53h-5.26l-6-23.75-6.15,23.75h-5.28l-7.31-32.53h5.46l4.92,24.44,6-24.44h4.61Z"/><path class="cls-1" d="M202.46,159.21H190.19l-2.57,7.57h-5.72l12-32.53h4.94l12,32.53H205Zm-10.72-4.56h9.18l-4.59-13.49Z"/><path class="cls-1" d="M226,154.27h-6.13v12.51h-5.5V134.25h11.13q5.48,0,8.46,2.53t3,7.31a9.33,9.33,0,0,1-1.53,5.47,9.79,9.79,0,0,1-4.27,3.39l7.11,13.55v.29h-5.89Zm-6.13-4.56h5.65a6.18,6.18,0,0,0,4.35-1.44,5.09,5.09,0,0,0,1.57-3.94,5.43,5.43,0,0,0-1.45-4,6,6,0,0,0-4.32-1.47h-5.81Z"/><path class="cls-1" d="M242.17,166.78V134.25h9.35a14.36,14.36,0,0,1,7.45,1.92,13,13,0,0,1,5,5.45,17.7,17.7,0,0,1,1.78,8.09v1.63a17.63,17.63,0,0,1-1.79,8.13,12.79,12.79,0,0,1-5.11,5.41,15,15,0,0,1-7.6,1.9Zm5.5-28v23.46h3.59a8.16,8.16,0,0,0,6.64-2.78q2.32-2.78,2.36-8v-1.81q0-5.29-2.24-8.09a7.85,7.85,0,0,0-6.5-2.79Z"/><path class="cls-1" d="M287.82,158.4a4,4,0,0,0-1.47-3.31,17.48,17.48,0,0,0-5.3-2.35,25.2,25.2,0,0,1-6.09-2.64q-4.33-2.79-4.33-7.28a8,8,0,0,1,3.12-6.48,12.4,12.4,0,0,1,8.1-2.55,13.38,13.38,0,0,1,5.89,1.25,9.75,9.75,0,0,1,4.07,3.56,9.32,9.32,0,0,1,1.48,5.13h-5.48a5.17,5.17,0,0,0-1.55-4,6.31,6.31,0,0,0-4.45-1.44,6.58,6.58,0,0,0-4.19,1.18,4,4,0,0,0-1.49,3.31,3.59,3.59,0,0,0,1.61,3,18.27,18.27,0,0,0,5.31,2.32,24.14,24.14,0,0,1,5.94,2.57,9.57,9.57,0,0,1,3.28,3.31,8.8,8.8,0,0,1,1,4.37,7.82,7.82,0,0,1-3,6.47q-3,2.4-8.23,2.4a15.12,15.12,0,0,1-6.32-1.31,10.66,10.66,0,0,1-4.48-3.61,9.17,9.17,0,0,1-1.6-5.36h5.5a5.33,5.33,0,0,0,1.78,4.29,7.66,7.66,0,0,0,5.11,1.52,6.66,6.66,0,0,0,4.32-1.2A3.9,3.9,0,0,0,287.82,158.4Z"/></g></g></svg>