<svg xmlns="http://www.w3.org/2000/svg" viewBox="0 0 289.55 195.69"><defs><style>.cls-1{fill:#0058e6;}.cls-2,.cls-5{fill:#fff;}.cls-2,.cls-3{stroke:#0058e6;}.cls-2,.cls-3,.cls-4{stroke-miterlimit:10;stroke-width:6px;}.cls-3,.cls-4{fill:none;}.cls-4{stroke:#231f20;}</style></defs><title>coastwards-cloud</title><g id="Layer_2" data-name="Layer 2"><g id="Layer_1-2" data-name="Layer 1"><path class="cls-1" d="M24.71,17.61A5.07,5.07,0,0,1,14.59,17a5.07,5.07,0,0,1,10.12.59Z"/><path class="cls-2" d="M276.87,88.8,263.05,74.48A110.33,110.33,0,0,1,251,84.71Z"/><path class="cls-3" d="M259.59,119.83l-21.68-27c-1.18.62-2.37,1.23-3.61,1.83a116.83,116.83,0,0,1-23.24,8.14c4.55,5.86,19.82,24.69,22.54,28.2"/><path class="cls-3" d="M259.59,119.83"/><path class="cls-3" d="M224.26,119.83"/><path class="cls-3" d="M237.9,92.88A106.64,106.64,0,0,0,251,84.71"/><path class="cls-4" d="M237.9,92.88"/><path class="cls-4" d="M78.21,31.73"/><path class="cls-3" d="M263.05,74.48c1.15-1.13,2.24-2.22,3.18-3.21C206.86-4.46,134.44,5.32,110.65,18.67c-14,6.27-31.76,7.4-31.76,7.4-.31,2-.53,3.84-.68,5.66"/><path class="cls-3" d="M134.44,119.83,117.91,93.64C101.77,85.76,89,74.52,82.63,60.37c-2.81-6.25-5.5-15.6-4.42-28.64-.88-.21-1.79-.46-2.72-.78a28.69,28.69,0,0,1-11.08-7A72.91,72.91,0,0,0,30.54,5,73.26,73.26,0,0,0,4.6,3.52C3.69,6.63.35,19.32,7.32,32.31,17.51,51.29,54.73,53,64.21,59.41a35.06,35.06,0,0,1,9.32,9.28c.95,1.39,1.62,2.64,2.16,3.6C83,85.55,97.8,112,101.37,119.83"/><path class="cls-3" d="M134.44,119.83"/><path class="cls-3" d="M101.37,119.83"/><path class="cls-3" d="M117.91,93.64"/><path class="cls-3" d="M211.05,102.84"/><path class="cls-3" d="M117.91,93.64c26.42,12.89,61.88,16.7,93.14,9.2"/><circle class="cls-1" cx="42.55" cy="153.89" r="39.44"/><circle class="cls-1" cx="95.26" cy="151.74" r="39.44"/><circle class="cls-1" cx="147.12" cy="156.26" r="39.44"/><circle class="cls-1" cx="194.85" cy="151.74" r="39.44"/><circle class="cls-1" cx="250.11" cy="153.89" r="39.44"/><path class="cls-5" d="M41.56,158.37a10,10,0,0,1-3.24,7.09A11.18,11.18,0,0,1,30.63,168a10.1,10.1,0,0,1-8.22-3.61q-3-3.61-3-9.92v-1.71a17.11,17.11,0,0,1,1.38-7.09,10.55,10.55,0,0,1,3.95-4.7,10.82,10.82,0,0,1,6-1.64A10.89,10.89,0,0,1,38.27,142a10.73,10.73,0,0,1,3.32,7.26H36a5.92,5.92,0,0,0-1.46-3.92,5.33,5.33,0,0,0-3.83-1.22,4.71,4.71,0,0,0-4.19,2.06q-1.39,2.06-1.43,6.39v2.11q0,4.52,1.33,6.61a4.63,4.63,0,0,0,4.21,2.09,5.43,5.43,0,0,0,3.87-1.22A5.57,5.57,0,0,0,36,158.37Z"/><path class="cls-5" d="M67.54,154.34a17.24,17.24,0,0,1-1.42,7.22,10.88,10.88,0,0,1-4.06,4.79,11.12,11.12,0,0,1-16.18-4.74,16.74,16.74,0,0,1-1.47-7.12v-1.38a17.14,17.14,0,0,1,1.45-7.25,11.06,11.06,0,0,1,20.24,0,17.09,17.09,0,0,1,1.45,7.23Zm-5.67-1.26q0-4.39-1.53-6.67a5.32,5.32,0,0,0-8.71,0q-1.53,2.25-1.55,6.6v1.36A12.14,12.14,0,0,0,51.61,161a5.27,5.27,0,0,0,8.73.09,12.07,12.07,0,0,0,1.53-6.62Z"/><path class="cls-5" d="M86.55,161.91H76.74l-1.87,5.75h-6L79,139.76h5.19l10.17,27.9h-6Zm-8.3-4.66H85l-3.41-10.44Z"/><path class="cls-5" d="M111,160.34a3,3,0,0,0-1.12-2.5,14.49,14.49,0,0,0-4-1.84,28.08,28.08,0,0,1-4.61-1.91q-4.63-2.57-4.63-6.92a6.86,6.86,0,0,1,1.24-4,8.13,8.13,0,0,1,3.56-2.77,13.1,13.1,0,0,1,5.21-1,11.93,11.93,0,0,1,5.19,1.08,8.32,8.32,0,0,1,3.53,3.06,8.16,8.16,0,0,1,1.26,4.48H111a3.81,3.81,0,0,0-1.18-3,4.75,4.75,0,0,0-3.3-1.06,5.06,5.06,0,0,0-3.19.89,2.84,2.84,0,0,0-1.14,2.35,2.7,2.7,0,0,0,1.33,2.28,14.84,14.84,0,0,0,3.93,1.72,16.81,16.81,0,0,1,7,3.66,7.39,7.39,0,0,1,2.18,5.44,6.78,6.78,0,0,1-2.67,5.68,11.46,11.46,0,0,1-7.18,2.06,13.56,13.56,0,0,1-5.71-1.18,9.09,9.09,0,0,1-3.93-3.23,8.43,8.43,0,0,1-1.35-4.75h5.61q0,4.62,5.37,4.62a5.12,5.12,0,0,0,3.12-.83A2.74,2.74,0,0,0,111,160.34Z"/><path class="cls-5" d="M140.85,144.42h-8.32v23.24h-5.6V144.42h-8.21v-4.66h22.12Z"/><path class="cls-5" d="M165.47,159.61l3.66-19.85h5.58l-6,27.9H163L158.62,149l-4.42,18.66h-5.63l-6-27.9h5.58l3.67,19.81,4.48-19.81H161Z"/><path class="cls-5" d="M192.25,161.91h-9.81l-1.87,5.75h-6l10.11-27.9h5.19l10.17,27.9h-6Zm-8.3-4.66h6.79l-3.41-10.44Z"/><path class="cls-5" d="M212.68,157.45h-4.46v10.21h-5.6v-27.9h10.09q4.81,0,7.42,2.2a7.7,7.7,0,0,1,2.61,6.23,8.76,8.76,0,0,1-1.2,4.76,8.26,8.26,0,0,1-3.65,3l5.88,11.4v.27h-6Zm-4.46-4.66h4.51a4.54,4.54,0,0,0,3.26-1.1,4,4,0,0,0,1.16-3,4.28,4.28,0,0,0-1.09-3.1,4.46,4.46,0,0,0-3.35-1.13h-4.5Z"/><path class="cls-5" d="M227,167.66v-27.9h8.36a12.43,12.43,0,0,1,6.41,1.66,11.42,11.42,0,0,1,4.41,4.71,14.87,14.87,0,0,1,1.59,6.95v1.28a14.9,14.9,0,0,1-1.56,6.92,11.33,11.33,0,0,1-4.39,4.69,12.52,12.52,0,0,1-6.4,1.69Zm5.6-23.24V163h2.71a6,6,0,0,0,5-2.2,10.15,10.15,0,0,0,1.77-6.3v-1.48q0-4.25-1.72-6.45a6,6,0,0,0-5-2.19Z"/><path class="cls-5" d="M265.91,160.34a3,3,0,0,0-1.12-2.5,14.49,14.49,0,0,0-4-1.84,28.08,28.08,0,0,1-4.61-1.91q-4.63-2.57-4.63-6.92a6.86,6.86,0,0,1,1.24-4,8.13,8.13,0,0,1,3.56-2.77,13.1,13.1,0,0,1,5.21-1,11.93,11.93,0,0,1,5.19,1.08,8.32,8.32,0,0,1,3.53,3.06,8.16,8.16,0,0,1,1.26,4.48h-5.6a3.81,3.81,0,0,0-1.18-3,4.75,4.75,0,0,0-3.3-1.06,5.06,5.06,0,0,0-3.19.89,2.84,2.84,0,0,0-1.14,2.35,2.7,2.7,0,0,0,1.33,2.28,14.84,14.84,0,0,0,3.93,1.72,16.81,16.81,0,0,1,7,3.66,7.39,7.39,0,0,1,2.18,5.44,6.78,6.78,0,0,1-2.67,5.68,11.46,11.46,0,0,1-7.18,2.06,13.56,13.56,0,0,1-5.71-1.18,9.09,9.09,0,0,1-3.93-3.23,8.43,8.43,0,0,1-1.35-4.75h5.61q0,4.62,5.37,4.62a5.12,5.12,0,0,0,3.12-.83A2.74,2.74,0,0,0,265.91,160.34Z"/></g></g></svg>