<svg xmlns="http://www.w3.org/2000/svg" viewBox="0 0 300 179.18"><defs><style>.cls-1,.cls-3{fill:#231f20;}.cls-2{fill:none;stroke:#231f20;stroke-miterlimit:10;stroke-width:6px;}.cls-3{font-size:45.75px;font-family:Roboto-Black, Roboto;}.cls-4{letter-spacing:-0.01em;}.cls-5{letter-spacing:0.01em;}.cls-6{letter-spacing:-0.02em;}</style></defs><title>Asset 6</title><g id="Layer_2" data-name="Layer 2"><g id="Layer_1-2" data-name="Layer 1"><path class="cls-1" d="M27.24,17.61A5.07,5.07,0,0,1,17.13,17a5.07,5.07,0,0,1,10.12.59Z"/><path class="cls-2" d="M285.15,91,265.59,74.48a110.33,110.33,0,0,1-12.09,10.23Z"/><path class="cls-2" d="M236.82,94.7a116.83,116.83,0,0,1-23.24,8.14c4.55,5.86,10.49,13.47,13.21,17h35.32l-21.68-27C239.26,93.5,238.06,94.11,236.82,94.7Z"/><path class="cls-2" d="M240.43,92.88a106.64,106.64,0,0,0,13.06-8.16"/><path class="cls-2" d="M240.43,92.88"/><path class="cls-2" d="M80.74,31.73"/><path class="cls-2" d="M265.59,74.48c1.15-1.13,2.24-2.22,3.18-3.21C209.4-4.46,137,5.32,113.18,18.67c-14,6.27-31.76,7.4-31.76,7.4-.31,2-.53,3.84-.68,5.66"/><path class="cls-2" d="M85.16,60.37c-2.81-6.25-5.5-15.6-4.42-28.64C79.86,31.52,79,31.27,78,31a28.69,28.69,0,0,1-11.08-7A72.91,72.91,0,0,0,33.07,5,73.26,73.26,0,0,0,7.13,3.52c-.91,3.1-4.25,15.8,2.72,28.79C20,51.29,57.26,53,66.74,59.41a35.06,35.06,0,0,1,9.32,9.28c.95,1.39,1.62,2.64,2.16,3.6,7.37,13.27,22.12,39.74,25.68,47.55H137L120.44,93.64C104.3,85.76,91.52,74.52,85.16,60.37Z"/><path class="cls-2" d="M120.44,93.64"/><path class="cls-2" d="M213.58,102.84"/><path class="cls-2" d="M120.44,93.64c26.42,12.89,61.88,16.7,93.14,9.2"/><text class="cls-3" transform="translate(0 166.78) scale(0.97 1)">C<tspan class="cls-4" x="30.03" y="0">O</tspan><tspan x="61.15" y="0">AS</tspan><tspan class="cls-5" x="120.95" y="0">T</tspan><tspan class="cls-6" x="150.13" y="0">W</tspan><tspan x="188.93" y="0">ARDS</tspan></text></g></g></svg>