<svg id="Layer_1" data-name="Layer 1" xmlns="http://www.w3.org/2000/svg" viewBox="0 0 150.44 82.73"><title>turtle-white</title><path d="M5200.61,525.53l-10.2-8.59a57.54,57.54,0,0,1-6.31,5.34Z" transform="translate(-5053.78 -478.66)" fill="none" stroke="#fff" stroke-miterlimit="10" stroke-width="2"/><path d="M5175.41,527.48a60.93,60.93,0,0,1-12.12,4.24l6.89,8.86h18.42l-11.31-14.06C5176.68,526.85,5176.05,527.17,5175.41,527.48Z" transform="translate(-5053.78 -478.66)" fill="none" stroke="#fff" stroke-miterlimit="10" stroke-width="2"/><path d="M5177.29,526.53a55.62,55.62,0,0,0,6.81-4.26" transform="translate(-5053.78 -478.66)" fill="none" stroke="#fff" stroke-miterlimit="10" stroke-width="2"/><path d="M5177.29,526.53" transform="translate(-5053.78 -478.66)" fill="none" stroke="#fff" stroke-miterlimit="10" stroke-width="2"/><path d="M5094,494.64" transform="translate(-5053.78 -478.66)" fill="none" stroke="#fff" stroke-miterlimit="10" stroke-width="2"/><path d="M5190.41,516.94c0.6-.59,1.17-1.16,1.66-1.68-31-39.49-68.74-34.4-81.15-27.43-7.3,3.27-16.57,3.86-16.57,3.86-0.16,1-.28,2-0.35,3" transform="translate(-5053.78 -478.66)" fill="none" stroke="#fff" stroke-miterlimit="10" stroke-width="2"/><path d="M5096.31,509.58a29.68,29.68,0,0,1-2.31-14.94c-0.46-.11-0.93-0.24-1.42-0.4a15,15,0,0,1-5.78-3.63,37.74,37.74,0,0,0-31.19-10.68,20.2,20.2,0,0,0,1.42,15c5.31,9.9,24.73,10.79,29.67,14.13a18.28,18.28,0,0,1,4.86,4.84c0.49,0.72.85,1.38,1.12,1.88,3.84,6.92,11.54,20.73,13.4,24.8h17.25l-8.62-13.66C5106.29,522.82,5099.62,517,5096.31,509.58Z" transform="translate(-5053.78 -478.66)" fill="none" stroke="#fff" stroke-miterlimit="10" stroke-width="2"/><path d="M5114.71,526.93" transform="translate(-5053.78 -478.66)" fill="none" stroke="#fff" stroke-miterlimit="10" stroke-width="2"/><path d="M5163.29,531.73" transform="translate(-5053.78 -478.66)" fill="none" stroke="#fff" stroke-miterlimit="10" stroke-width="2"/><path d="M5114.71,526.93c13.78,6.72,32.27,8.71,48.58,4.8" transform="translate(-5053.78 -478.66)" fill="none" stroke="#fff" stroke-miterlimit="10" stroke-width="2"/><path d="M5066.7,487.11a2.52,2.52,0,1,1-2.37-2.59A2.5,2.5,0,0,1,5066.7,487.11Z" transform="translate(-5053.78 -478.66)" fill="#fff"/><path d="M5068.42,555.94a5.86,5.86,0,0,1-1.85,4,6.19,6.19,0,0,1-4.28,1.44,6,6,0,0,1-3.29-.91,5.91,5.91,0,0,1-2.2-2.59A9.54,9.54,0,0,1,5056,554v-1.5a9.62,9.62,0,0,1,.78-4,6,6,0,0,1,2.25-2.67,6.15,6.15,0,0,1,3.39-.94,5.94,5.94,0,0,1,4.17,1.44,6.08,6.08,0,0,1,1.83,4.07h-2.71a4,4,0,0,0-1-2.5,3.19,3.19,0,0,0-2.31-.77,3.14,3.14,0,0,0-2.72,1.33,6.79,6.79,0,0,0-1,3.9v1.42a7.21,7.21,0,0,0,.91,4,3,3,0,0,0,2.66,1.37,3.45,3.45,0,0,0,2.4-.74,3.9,3.9,0,0,0,1-2.46h2.71Z" transform="translate(-5053.78 -478.66)" fill="#fff"/><path d="M5083.32,553.56a10.07,10.07,0,0,1-.79,4.14,6.29,6.29,0,0,1-9.05,2.73,6.21,6.21,0,0,1-2.3-2.72,9.76,9.76,0,0,1-.82-4.07v-0.9a10,10,0,0,1,.81-4.15,6.22,6.22,0,0,1,2.29-2.75,6.16,6.16,0,0,1,9.05,2.7,10,10,0,0,1,.82,4.12v0.89Zm-2.72-.84a7.16,7.16,0,0,0-1-4.09,3.41,3.41,0,0,0-5.54,0,7,7,0,0,0-1,4v0.93a7.11,7.11,0,0,0,1,4.09,3.21,3.21,0,0,0,2.79,1.44,3.17,3.17,0,0,0,2.77-1.41,7.27,7.27,0,0,0,1-4.12v-0.84Z" transform="translate(-5053.78 -478.66)" fill="#fff"/><path d="M5094.55,557.43h-6.05l-1.27,3.74h-2.82l5.9-16.05h2.44l5.92,16.05h-2.83Zm-5.29-2.25h4.53l-2.26-6.66Z" transform="translate(-5053.78 -478.66)" fill="#fff"/><path d="M5108.6,557a2,2,0,0,0-.72-1.63,8.59,8.59,0,0,0-2.61-1.16,12.46,12.46,0,0,1-3-1.3,4.14,4.14,0,0,1-2.14-3.59,4,4,0,0,1,1.54-3.2,6.13,6.13,0,0,1,4-1.26,6.61,6.61,0,0,1,2.91.62,4.82,4.82,0,0,1,2,1.76,4.6,4.6,0,0,1,.73,2.53h-2.71a2.52,2.52,0,0,0-.77-2,3.13,3.13,0,0,0-2.2-.71,3.26,3.26,0,0,0-2.07.58,2,2,0,0,0-.74,1.63,1.76,1.76,0,0,0,.79,1.47,9,9,0,0,0,2.62,1.14,11.88,11.88,0,0,1,2.93,1.27,4.72,4.72,0,0,1,1.62,1.63,4.34,4.34,0,0,1,.52,2.16,3.86,3.86,0,0,1-1.5,3.19,6.38,6.38,0,0,1-4.06,1.19,7.45,7.45,0,0,1-3.12-.65,5.27,5.27,0,0,1-2.21-1.78,4.53,4.53,0,0,1-.79-2.65h2.72a2.63,2.63,0,0,0,.88,2.12,3.78,3.78,0,0,0,2.52.75,3.28,3.28,0,0,0,2.13-.59A1.92,1.92,0,0,0,5108.6,557Z" transform="translate(-5053.78 -478.66)" fill="#fff"/><path d="M5125,547.36h-4.87v13.81h-2.69V547.36h-4.83v-2.25H5125v2.25Z" transform="translate(-5053.78 -478.66)" fill="#fff"/><path d="M5139.46,557.2l2.4-12.08h2.69L5141,561.17h-2.6l-3-11.72-3,11.72h-2.61l-3.61-16.05h2.69l2.43,12.06,3-12.06h2.28Z" transform="translate(-5053.78 -478.66)" fill="#fff"/><path d="M5154.84,557.43h-6.05l-1.27,3.74h-2.82l5.9-16.05H5153l5.92,16.05h-2.83Zm-5.29-2.25h4.53l-2.26-6.66Z" transform="translate(-5053.78 -478.66)" fill="#fff"/><path d="M5166.46,555h-3v6.17h-2.72V545.11h5.5a6.27,6.27,0,0,1,4.18,1.25,4.47,4.47,0,0,1,1.47,3.61,4.61,4.61,0,0,1-.76,2.7,4.84,4.84,0,0,1-2.11,1.67l3.51,6.69v0.14h-2.91Zm-3-2.25h2.79a3,3,0,0,0,2.15-.71,2.51,2.51,0,0,0,.77-1.95,2.68,2.68,0,0,0-.71-2,3,3,0,0,0-2.13-.73h-2.87v5.38Z" transform="translate(-5053.78 -478.66)" fill="#fff"/><path d="M5174.44,561.17V545.11h4.62a7.08,7.08,0,0,1,3.68.95,6.39,6.39,0,0,1,2.49,2.69,8.73,8.73,0,0,1,.88,4v0.81a8.7,8.7,0,0,1-.88,4,6.31,6.31,0,0,1-2.52,2.67,7.41,7.41,0,0,1-3.75.94h-4.5Zm2.72-13.81v11.56h1.77a4,4,0,0,0,3.28-1.37,6.07,6.07,0,0,0,1.16-3.93v-0.89a6.23,6.23,0,0,0-1.11-4,3.88,3.88,0,0,0-3.21-1.38h-1.9Z" transform="translate(-5053.78 -478.66)" fill="#fff"/><path d="M5197,557a2,2,0,0,0-.72-1.63,8.59,8.59,0,0,0-2.61-1.16,12.46,12.46,0,0,1-3-1.3,4.14,4.14,0,0,1-2.14-3.59,4,4,0,0,1,1.54-3.2,6.13,6.13,0,0,1,4-1.26,6.61,6.61,0,0,1,2.91.62,4.82,4.82,0,0,1,2,1.76,4.6,4.6,0,0,1,.73,2.53H5197a2.52,2.52,0,0,0-.77-2,3.13,3.13,0,0,0-2.2-.71,3.26,3.26,0,0,0-2.07.58,2,2,0,0,0-.74,1.63,1.76,1.76,0,0,0,.79,1.47,9,9,0,0,0,2.62,1.14,11.88,11.88,0,0,1,2.93,1.27,4.72,4.72,0,0,1,1.62,1.63,4.34,4.34,0,0,1,.52,2.16,3.86,3.86,0,0,1-1.5,3.19,6.38,6.38,0,0,1-4.06,1.19,7.45,7.45,0,0,1-3.12-.65,5.27,5.27,0,0,1-2.21-1.78,4.53,4.53,0,0,1-.79-2.65h2.72a2.63,2.63,0,0,0,.88,2.12,3.78,3.78,0,0,0,2.52.75,3.28,3.28,0,0,0,2.13-.59A1.92,1.92,0,0,0,5197,557Z" transform="translate(-5053.78 -478.66)" fill="#fff"/></svg>