<svg xmlns="http://www.w3.org/2000/svg" viewBox="0 0 294.94 179.18"><defs><style>.cls-1,.cls-3{fill:#fff;}.cls-2{fill:none;stroke:#fff;stroke-miterlimit:10;stroke-width:6px;}.cls-3{font-size:45.75px;font-family:Roboto-Medium, Roboto;}.cls-4{letter-spacing:-0.01em;}.cls-5{letter-spacing:0.01em;}.cls-6{letter-spacing:-0.02em;}</style></defs><title>Asset 9</title><g id="Layer_2" data-name="Layer 2"><g id="Layer_1-2" data-name="Layer 1"><path class="cls-1" d="M24.71,17.61A5.07,5.07,0,0,1,14.59,17a5.07,5.07,0,0,1,10.12.59Z"/><path class="cls-2" d="M282.62,91,263.05,74.48A110.33,110.33,0,0,1,251,84.71Z"/><path class="cls-2" d="M234.29,94.7a116.83,116.83,0,0,1-23.24,8.14c4.55,5.86,10.49,13.47,13.21,17h35.32l-21.68-27C236.73,93.5,235.53,94.11,234.29,94.7Z"/><path class="cls-2" d="M237.9,92.88A106.64,106.64,0,0,0,251,84.71"/><path class="cls-2" d="M237.9,92.88"/><path class="cls-2" d="M78.21,31.73"/><path class="cls-2" d="M263.05,74.48c1.15-1.13,2.24-2.22,3.18-3.21C206.86-4.46,134.44,5.32,110.65,18.67c-14,6.27-31.76,7.4-31.76,7.4-.31,2-.53,3.84-.68,5.66"/><path class="cls-2" d="M82.63,60.37c-2.81-6.25-5.5-15.6-4.42-28.64-.88-.21-1.79-.46-2.72-.78a28.69,28.69,0,0,1-11.08-7A72.91,72.91,0,0,0,30.54,5,73.26,73.26,0,0,0,4.6,3.52C3.69,6.63.35,19.32,7.32,32.31,17.51,51.29,54.73,53,64.21,59.41a35.06,35.06,0,0,1,9.32,9.28c.95,1.39,1.62,2.64,2.16,3.6C83,85.55,97.8,112,101.37,119.83h33.07L117.91,93.64C101.77,85.76,89,74.52,82.63,60.37Z"/><path class="cls-2" d="M117.91,93.64"/><path class="cls-2" d="M211.05,102.84"/><path class="cls-2" d="M117.91,93.64c26.42,12.89,61.88,16.7,93.14,9.2"/><text class="cls-3" transform="translate(0 166.78) scale(0.97 1)">C<tspan class="cls-4" x="29.87" y="0">O</tspan><tspan x="60.99" y="0">AS</tspan><tspan class="cls-5" x="119.05" y="0">T</tspan><tspan class="cls-6" x="147.16" y="0">W</tspan><tspan x="186.45" y="0">ARDS</tspan></text></g></g></svg>