<svg id="Layer_1" data-name="Layer 1" xmlns="http://www.w3.org/2000/svg" viewBox="0 0 493.36 276.31"><title>coastwards</title><path d="M760.37,409.19a20.11,20.11,0,0,1-3,10,18,18,0,0,1-7.6,6.7,25.29,25.29,0,0,1-11.18,2.38q-10.37,0-16.33-6.94t-6-19.59V399a33.48,33.48,0,0,1,2.69-13.9,20.79,20.79,0,0,1,7.75-9.2,21.19,21.19,0,0,1,11.71-3.25q9.57,0,15.39,5.18t6.61,14.27H747.83q-0.15-4.94-2.42-7.09t-6.94-2.15a7.52,7.52,0,0,0-6.94,3.64q-2.2,3.64-2.31,11.62V402q0,8.65,2.11,12.36t7.28,3.71q4.37,0,6.68-2.12t2.46-6.72h12.61Z" transform="translate(-716.27 -151.92)" fill="#fff"/><path d="M810.91,401.58a32.6,32.6,0,0,1-2.85,14,21.48,21.48,0,0,1-8.11,9.37,22.13,22.13,0,0,1-12,3.28A22.43,22.43,0,0,1,776,425.05a21.42,21.42,0,0,1-8.11-9.07,31.62,31.62,0,0,1-3.05-13.54v-3a32.73,32.73,0,0,1,2.84-14,21.42,21.42,0,0,1,8.13-9.37,23.51,23.51,0,0,1,24,0,21.82,21.82,0,0,1,8.15,9.3,31.8,31.8,0,0,1,2.94,13.82v2.49ZM798,399.32q0-8.05-2.62-12.23a8.35,8.35,0,0,0-7.5-4.17q-9.54,0-10.08,14.7l0,4q0,7.94,2.57,12.21a8.34,8.34,0,0,0,7.62,4.27,8.24,8.24,0,0,0,7.41-4.19q2.6-4.19,2.64-12.06v-2.49Z" transform="translate(-716.27 -151.92)" fill="#fff"/><path d="M846.57,417.39H829.19l-3,10.09H812.61l19.29-54h11.92l19.44,54H849.64Zm-14.34-10.06h11.31l-5.67-18.74Z" transform="translate(-716.27 -151.92)" fill="#fff"/><path d="M894.22,413.12a5.42,5.42,0,0,0-2-4.45,24.24,24.24,0,0,0-6.92-3.3,65.2,65.2,0,0,1-8.09-3.3Q867,396.91,867,387.89a12.94,12.94,0,0,1,2.55-7.92,16.51,16.51,0,0,1,7.21-5.34,27.4,27.4,0,0,1,10.48-1.91,24,24,0,0,1,10.17,2.08,16.21,16.21,0,0,1,7,5.92,15.77,15.77,0,0,1,2.49,8.78H894.25a6.63,6.63,0,0,0-2-5.12,7.55,7.55,0,0,0-5.33-1.82,8.49,8.49,0,0,0-5.36,1.54,4.6,4.6,0,0,0,.2,7.68,27,27,0,0,0,7.62,3.49,46.12,46.12,0,0,1,9,3.88q8.53,5,8.53,13.92a13.32,13.32,0,0,1-5.2,11.13q-5.2,4-14.27,4a27.66,27.66,0,0,1-11.58-2.36,17.55,17.55,0,0,1-7.8-6.46,17.16,17.16,0,0,1-2.62-9.44h12.72q0,4.34,2.19,6.4t7.1,2.06a8,8,0,0,0,5-1.39A4.64,4.64,0,0,0,894.22,413.12Z" transform="translate(-716.27 -151.92)" fill="#fff"/><path d="M954.69,383.51H938.9v44H926.22v-44h-15.5V373.45h44v10.06Z" transform="translate(-716.27 -151.92)" fill="#fff"/><path d="M1001.33,407.33l6-33.88h12.57l-11.16,54H995.62l-7-30.8-6.9,30.8H968.56l-11.2-54H970l6,33.88,7.23-33.88H994Z" transform="translate(-716.27 -151.92)" fill="#fff"/><path d="M1053.21,417.39h-17.38l-3,10.09h-13.55l19.29-54h11.92l19.44,54h-13.62Zm-14.34-10.06h11.31l-5.67-18.74Z" transform="translate(-716.27 -151.92)" fill="#fff"/><path d="M1093.27,408.37h-6.86v19.11h-12.68v-54h20.7q9.36,0,14.63,4.26t5.27,12a17.92,17.92,0,0,1-2.22,9.34,15.88,15.88,0,0,1-7,6l11,21.82v0.56h-13.58Zm-6.86-10h8a7.09,7.09,0,0,0,5.44-2,7.68,7.68,0,0,0,1.82-5.45,7.77,7.77,0,0,0-1.84-5.49,7,7,0,0,0-5.42-2h-8v14.88Z" transform="translate(-716.27 -151.92)" fill="#fff"/><path d="M1122,427.48v-54h16.94a24.42,24.42,0,0,1,12.54,3.25,22.56,22.56,0,0,1,8.69,9.17,28.29,28.29,0,0,1,3.16,13.27v2.49a28.45,28.45,0,0,1-3.05,13.3,22.66,22.66,0,0,1-8.6,9.2,23.87,23.87,0,0,1-12.37,3.36H1122Zm12.68-44v34h4.41a9.76,9.76,0,0,0,8.38-4q2.93-4,2.93-11.86v-2.34q0-7.83-2.93-11.8t-8.53-4h-4.26Z" transform="translate(-716.27 -151.92)" fill="#fff"/><path d="M1197,413.12a5.41,5.41,0,0,0-2-4.45,24.24,24.24,0,0,0-6.92-3.3,65.22,65.22,0,0,1-8.09-3.3q-10.22-5.16-10.22-14.18a13,13,0,0,1,2.55-7.92,16.51,16.51,0,0,1,7.21-5.34,27.4,27.4,0,0,1,10.48-1.91,24,24,0,0,1,10.17,2.08,16.21,16.21,0,0,1,7,5.92,15.76,15.76,0,0,1,2.49,8.78H1197a6.63,6.63,0,0,0-2-5.12,7.55,7.55,0,0,0-5.33-1.82,8.49,8.49,0,0,0-5.36,1.54,4.6,4.6,0,0,0,.2,7.68,27,27,0,0,0,7.62,3.49,46.12,46.12,0,0,1,9,3.88q8.53,5,8.53,13.92a13.33,13.33,0,0,1-5.2,11.13q-5.2,4-14.27,4a27.66,27.66,0,0,1-11.58-2.36,17.55,17.55,0,0,1-7.8-6.46,17.15,17.15,0,0,1-2.62-9.44h12.72q0,4.34,2.19,6.4t7.1,2.06a8,8,0,0,0,5-1.39A4.64,4.64,0,0,0,1197,413.12Z" transform="translate(-716.27 -151.92)" fill="#fff"/><path d="M1115.72,308.32c-2.3,1.22-4.23,2.25-6.05,3.13a196.22,196.22,0,0,1-39,13.68l-1.27.32,11.79,15.17c4.53,5.83,8.73,11,11.26,14.27l0.25,0.11h61.66l-38.06-47.09Z" transform="translate(-716.27 -151.92)" fill="#fff"/><path d="M1108.93,301.14a168.13,168.13,0,0,0,20.51-12.82,174.54,174.54,0,0,0,19-16.08q1.38-1.35,2.58-2.56c-50.65-63.25-105-84.83-141.93-91.77-45-8.45-82.48.64-100.91,11l-0.33.16c-18.66,8.35-40.92,11.16-49.19,12-0.25,1.9-.45,3.81-0.61,5.69-1.35,16.24.93,31.07,6.77,44.07,9.32,20.76,28.28,38.58,54.83,51.53,42.17,20.58,98.52,26.13,147,14.5a184.18,184.18,0,0,0,36.56-12.8C1105,303.19,1106.77,302.28,1108.93,301.14Z" transform="translate(-716.27 -151.92)" fill="#fff"/><path d="M1134.11,298.16l51.62,8.13L1158,277.56l-3.63,3.46c-3.66,3.48-7.5,6.85-11.4,10Z" transform="translate(-716.27 -151.92)" fill="#fff"/><path d="M924,316.41c-3.11-1.31-6.17-2.77-9.14-4.22-28.89-14.09-49.65-33.77-60-56.91-5.94-13.22-8.62-28-8-44,0,1,.1-3.49.37-6.74l0.36-4.15-3.58-1.16a44.37,44.37,0,0,1-17.07-10.73,126.07,126.07,0,0,0-104.18-35.66l-2.76.33-0.78,2.66c-2.43,8.25-6.82,29.81,4.9,51.66,12.38,23.06,44.76,31.52,70.78,38.31,11.66,3,21.72,5.67,26.39,8.82a54.65,54.65,0,0,1,14.57,14.52c1.42,2.08,2.54,3.87,3.43,5.47,11.95,21.52,37.07,67.71,43.19,79.73l0.31,0.66h65.74ZM744.71,189.74a10.11,10.11,0,1,1,10.11-10.11A10.11,10.11,0,0,1,744.71,189.74Z" transform="translate(-716.27 -151.92)" fill="#fff"/></svg>