<svg id="Layer_1" data-name="Layer 1" xmlns="http://www.w3.org/2000/svg" xmlns:xlink="http://www.w3.org/1999/xlink" viewBox="0 0 73.85 122.89"><defs><clipPath id="clip-path" transform="translate(-1321.4 -354.45)"><path d="M1346,439.67q0-11.52,2.8-18.35T1359,407.86q7.44-6.63,9.91-10.79a16.93,16.93,0,0,0,2.47-8.77q0-13.92-12.83-13.92a13,13,0,0,0-9.74,3.75q-3.66,3.75-3.82,10.34h-23.85q0.16-15.72,10.16-24.61t27.26-8.89q17.43,0,27.05,8.44t9.62,23.83a29,29,0,0,1-3.12,13.21q-3.13,6.21-10.94,13.79l-6.66,6.34a22.58,22.58,0,0,0-7.15,14.07l-0.33,5h-21Zm-2.38,25.2a12,12,0,0,1,3.74-9.06,14.65,14.65,0,0,1,19.16,0,12.78,12.78,0,0,1,.08,18,15,15,0,0,1-19.32,0A11.87,11.87,0,0,1,1343.61,464.88Z" fill="none"/></clipPath></defs><title>legend</title><g clip-path="url(#clip-path)"><rect width="73.85" height="17.17" fill="#7e3096"/><rect y="17.16" width="73.85" height="17.17" fill="#469a16"/><rect y="34.34" width="73.85" height="17.17" fill="#fbb03b"/><rect y="51.52" width="73.85" height="17.17" fill="#8a5707"/><rect y="68.69" width="73.85" height="17.17" fill="#ef25db"/><rect y="93.87" width="73.85" height="17.17" fill="#0058e6"/><rect y="111.03" width="73.85" height="11.86" fill="#0058e6"/></g></svg>