<svg id="Layer_1" data-name="Layer 1" xmlns="http://www.w3.org/2000/svg" viewBox="0 0 326.34 326.34"><title>material</title><path d="M1982.77,1572.19a150.7,150.7,0,0,0,277.48-106.3l-5.36-19.72h0c-137.26,4.54-185.53,13.59-186.22,24.21-0.65,10,40.81,17.2,40.67,34-0.08,9.93-14.67,17.17-57.33,36.67C2027,1552.47,2003.83,1562.87,1982.77,1572.19Z" transform="translate(-1954.34 -1337.39)"/><path d="M2106.15,1397.15a25.59,25.59,0,0,0-14.15-5.27,26.21,26.21,0,0,0-18.25,6.5,21,21,0,0,1,11.75-3c9.18,0.46,14.65,7.07,15.54,8.19-1.51-.62-17-6.72-30.79,2.31a32,32,0,0,0-12.25,15.75c1.7-2,10.58-11.84,25-12.5a34.47,34.47,0,0,1,18,4.25c-1.08-.08-10.52-0.6-17.25,7-7,7.85-5,17.53-4.75,18.5a31.53,31.53,0,0,1,11.5-16.5,31.11,31.11,0,0,1,15-5.75c-0.28.28-3.89,4.12-2.75,9.25a10.26,10.26,0,0,0,8.5,7.75,8.45,8.45,0,0,1,.42-15.81l14.67,38.56H2148l-27-42.67a13.25,13.25,0,0,1,9.75-2.83c7.09,0.93,10.1,7.66,10.25,8a16.52,16.52,0,0,0-22.67-14.5c0.72-1.05,3.55-4.92,8.42-5.75,5.84-1,12.28,2.78,15.25,9.5a18.27,18.27,0,0,0-28.33-9.75c-1.57-2.89-1.73-6.25-.17-8.5,2.3-3.33,8.34-4.25,13-.5a11.41,11.41,0,0,0-11.75-5.5C2109.27,1385,2105.21,1390.78,2106.15,1397.15Z" transform="translate(-1954.34 -1337.39)"/><path d="M2155.73,1576.38q0-11.61,2.62-18.32a28.66,28.66,0,0,1,8.51-11.65,56.5,56.5,0,0,0,8.94-9,14.73,14.73,0,0,0,3.06-9q0-12-10.33-12a9.59,9.59,0,0,0-7.71,3.5q-2.94,3.5-3.1,9.46h-26.87q0.16-15.9,10-24.76t27.67-8.86q17.73,0,27.47,8.19t9.74,23.29a27.13,27.13,0,0,1-2.62,12,40.58,40.58,0,0,1-8.43,11.05l-9.14,8.51a21.49,21.49,0,0,0-5.41,7.67,30.36,30.36,0,0,0-1.67,10h-22.74Zm-3.26,24.17a12.34,12.34,0,0,1,4.25-9.66,16.8,16.8,0,0,1,21.23,0,13.09,13.09,0,0,1,0,19.32,16.8,16.8,0,0,1-21.23,0A12.33,12.33,0,0,1,2152.47,1600.55Z" transform="translate(-1954.34 -1337.39)" fill="#fff"/><circle cx="163.17" cy="163.17" r="150.67" fill="none" stroke="#c1272d" stroke-miterlimit="10" stroke-width="25"/></svg>