<svg id="Layer_1" data-name="Layer 1" xmlns="http://www.w3.org/2000/svg" viewBox="0 0 336.34 336.34"><title>original</title><path d="M2729.78,1393.6V1474c-0.08.29-.17,0.57-0.24,0.87q-2.69,12.19-14.64,15.8c-0.78.24-1.59,0.4-2.38,0.59H2690.3c0-.3-0.08-0.6-0.08-0.91q0-20.7,0-41.41v-1.1h1.18c5.63,0,11.26,0,16.89,0,0.81,0,1.1-.18,1.09-1.06,0-5.69,0-11.38,0-17.08,0-.33,0-0.65,0-1.1h-19c0-3-.14-5.82,0-8.65s1.88-4.09,4.56-4.09h13.22c0.39,0,.78,0,1.18-0.06V1396.8c-0.34,0-.61,0-0.88,0h-14.23a19.06,19.06,0,0,0-11.26,3.58,24.2,24.2,0,0,0-10.21,16.74c-0.52,3.45-.3,7-0.41,10.53,0,0.35,0,.7,0,1.15h-14c0,0.3-.07.51-0.07,0.72,0,5.85,0,11.69,0,17.54,0,0.79.33,0.89,1,.89,4,0,8,0,11.94,0h1.17v43.41h-40.22c-0.26-.07-0.51-0.17-0.78-0.22q-12.26-2.65-15.89-14.66c-0.24-.78-0.4-1.59-0.59-2.38V1393.6c0.11-.41.23-0.82,0.32-1.23,1.83-7.85,6.61-13,14.29-15.37,0.87-.27,1.77-0.45,2.65-0.67h80.44c0.23,0.07.45,0.16,0.69,0.21q12.39,2.62,16,14.76C2729.44,1392.06,2729.59,1392.83,2729.78,1393.6Z" transform="translate(-2421.74 -1288.21)"/><path d="M2689.67,1518.51a48.53,48.53,0,0,1-14.11,3.15,24.35,24.35,0,0,0,11.3-12.91,48.59,48.59,0,0,1-15.68,5.15,24.3,24.3,0,0,0-42.37,20.14,68.91,68.91,0,0,1-48.77-27.72,24.3,24.3,0,0,0,6,32.73,24.17,24.17,0,0,1-10.84-3.56c0,0.1,0,.2,0,0.3a24.29,24.29,0,0,0,18.31,24.7,24.3,24.3,0,0,1-11-.11,24.3,24.3,0,0,0,21.85,17.92,49,49,0,0,1-36.37,8.33,68.7,68.7,0,0,0,36.65,12.67c44.6,2.13,70.74-33.65,72.27-65.69q0.08-1.58.08-3.14A49.31,49.31,0,0,0,2689.67,1518.51Z" transform="translate(-2421.74 -1288.21)"/><path d="M2552.36,1309.74l7.19-.09a5.91,5.91,0,0,0,.82.17,58.08,58.08,0,0,1,17.56,3.88,57.5,57.5,0,0,1,24.76,18.51,56,56,0,0,1,11.43,26.92c0.19,1.34.4,2.67,0.6,4l0.09,7.19a6.08,6.08,0,0,0-.17.82,58.68,58.68,0,0,1-3.5,16.31,57.59,57.59,0,0,1-12.9,20.26,56.54,56.54,0,0,1-12.27,9.54,58.7,58.7,0,0,1-56.2,1.4,2,2,0,0,0-1.41-.11c-3.42,1.09-6.83,2.24-10.24,3.37-5,1.67-10.05,3.32-15.07,5-1.9.64-3.79,1.33-5.68,2l-0.38-.37c0.2-.45.43-0.89,0.59-1.36,1.24-3.8,2.47-7.61,3.71-11.42,1.86-5.72,3.75-11.44,5.57-17.17a2.21,2.21,0,0,0-.16-1.49c-0.72-1.47-1.57-2.87-2.31-4.33a57.28,57.28,0,0,1,5.22-59.37,58.25,58.25,0,0,1,38.46-23Zm-40.9,104.68c0.89-.27,1.55-0.47,2.21-0.68,5.18-1.71,10.36-3.41,15.52-5.16a2.22,2.22,0,0,1,1.94.21c2.31,1.22,4.6,2.5,7,3.52a46.73,46.73,0,0,0,19.48,3.62,47.83,47.83,0,0,0,19.83-4.64,48.86,48.86,0,0,0,23.25-22.91,47.94,47.94,0,0,0-5.1-50.19,48.61,48.61,0,0,0-11.8-11.08,47.69,47.69,0,0,0-19.94-7.71,49.08,49.08,0,0,0-48.59,22.12,47.4,47.4,0,0,0-6.51,15.73,49,49,0,0,0-.93,13.74,47.6,47.6,0,0,0,9.07,24.7,1.43,1.43,0,0,1,.19,1.47q-2.3,7-4.56,13.93C2512.18,1412.15,2511.86,1413.19,2511.47,1414.43Z" transform="translate(-2421.74 -1288.21)"/><path d="M2538.25,1341.38c0.57,0,1.1,0,1.64,0a2.19,2.19,0,0,1,2.11,1.18c0.75,1.56,1.48,3.13,2.18,4.71,1,2.22,1.87,4.48,2.92,6.66a3.65,3.65,0,0,1-.44,4c-0.95,1.33-2,2.59-3,3.85a2.2,2.2,0,0,0-.23,2.92,38.85,38.85,0,0,0,14.85,14.2c1.64,0.86,3.36,1.59,5.08,2.29a2,2,0,0,0,2.81-.81q2.09-2.62,4.17-5.26c1-1.21,1.71-1.49,3.13-.86,3.88,1.73,7.73,3.54,11.6,5.29a1.94,1.94,0,0,1,1.28,2.18,39.22,39.22,0,0,1-.94,5.28c-0.53,1.86-2,3.09-3.53,4.18-3.82,2.71-8,4-12.66,2.77-3.1-.83-6.15-1.86-9.19-2.89-7-2.37-12.77-6.59-17.89-11.8a71.22,71.22,0,0,1-11-14.27c-2.48-4.29-3.69-8.9-2.64-13.89a15.41,15.41,0,0,1,5.32-8.71A5.48,5.48,0,0,1,2538.25,1341.38Z" transform="translate(-2421.74 -1288.21)"/><path d="M2457,1529.34v-83.49c0.09-.32.19-0.64,0.26-1a12.69,12.69,0,0,1,7.09-9.48,36.52,36.52,0,0,1,4.85-1.57h83.15l1.16,0.27a13.08,13.08,0,0,1,10.38,9.21c0.27,0.83.45,1.69,0.66,2.54v83.49c-0.09.32-.2,0.64-0.26,1a12.73,12.73,0,0,1-7.16,9.52,36.13,36.13,0,0,1-4.77,1.53H2469c-0.29-.08-0.58-0.19-0.88-0.25-5.54-1.2-9.2-4.42-10.67-10Zm86-50c0.08,0.35.14,0.63,0.2,0.9,0.3,1.51.71,3,.87,4.54a31,31,0,0,1-7.23,24.12,32.45,32.45,0,0,1-17.54,10.91,34.17,34.17,0,0,1-21.22-1.42,32.57,32.57,0,0,1-10.61-6.83,31.93,31.93,0,0,1-6-7.71,31.69,31.69,0,0,1-3.45-21.08c0.21-1.14.49-2.26,0.75-3.45h-9.77c0,0.29-.07.54-0.07,0.79q0,22.12,0,44.23a4.32,4.32,0,0,0,4.69,4.64h74c3,0,4.72-1.73,4.73-4.75q0-22,0-44v-0.93h-9.42Zm-32.12,28.93a22,22,0,0,0,7.89-1.44,20.83,20.83,0,0,0,13.7-19.17,19.89,19.89,0,0,0-6.46-15.24,21.14,21.14,0,0,0-12.34-5.81,21.42,21.42,0,0,0-15,3.47,20.23,20.23,0,0,0-8.79,12.44,19.7,19.7,0,0,0,4.34,18.13A21.26,21.26,0,0,0,2510.8,1508.28Zm30.52-41.25c1.92,0,3.83,0,5.75,0,3.27,0,5.22-2,5.22-5.27q0-5.32,0-10.65c0-3.34-2-5.36-5.32-5.38q-5.58,0-11.16,0c-3.35,0-5.33,2-5.34,5.35q0,5.32,0,10.65c0,3.35,1.93,5.28,5.27,5.31C2537.6,1467.05,2539.46,1467,2541.32,1467Z" transform="translate(-2421.74 -1288.21)"/><circle cx="168.17" cy="168.17" r="150.67" fill="none" stroke="#c1272d" stroke-miterlimit="10" stroke-width="35"/><line x1="60.05" y1="272.71" x2="272.38" y2="60.38" fill="none" stroke="#c1272d" stroke-miterlimit="10" stroke-width="35"/></svg>