<svg id="Layer_1" data-name="Layer 1" xmlns="http://www.w3.org/2000/svg" viewBox="0 0 281.62 148.44"><title>turtle</title><polyline points="249.32 69.57 272.94 89.47 234.22 81.83" fill="#333"/><path d="M581.9,101.26c0.89,1.3,1.52,2.48,2,3.38,6.91,12.45,22.21,40.3,25.55,47.62H641l-25.53-40.46-22.2-44.49a27.91,27.91,0,0,1-9.48-1.46,26.93,26.93,0,0,1-10.4-6.53A67.91,67.91,0,0,0,517.22,40.1c-0.86,2.91-4,14.83,2.55,27,9.56,17.82,44.49,19.41,53.39,25.43A32.89,32.89,0,0,1,581.9,101.26Z" transform="translate(-515.71 -39.61)" fill="#333"/><path d="M537.16,53a4.54,4.54,0,1,1-4.26-4.65A4.49,4.49,0,0,1,537.16,53Z" transform="translate(-515.71 -39.61)" fill="#fff"/><path d="M758.53,152.26l-21.05-26.17-29.14,4.23c3.18,4.13,13.31,17.12,17,21.93h33.15Z" transform="translate(-515.71 -39.61)" fill="#333"/><path d="M588.94,64.26s16.67-1.06,29.81-6.94c22.33-12.53,90.3-21.71,146,49.36a102.24,102.24,0,0,1-30,22c-49.49,23.72-124.08,8.43-142.34-32.23C589.45,89.77,586.58,79.31,588.94,64.26Z" transform="translate(-515.71 -39.61)" fill="#333" stroke="#fff" stroke-linecap="round" stroke-miterlimit="10" stroke-width="5"/><path d="M551.14,177.88a10.53,10.53,0,0,1-1.62,5.32,9.79,9.79,0,0,1-4.16,3.58,14.19,14.19,0,0,1-6.13,1.27,11.32,11.32,0,0,1-9-3.69q-3.27-3.7-3.28-10.45v-1.43a17.43,17.43,0,0,1,1.47-7.42,11.17,11.17,0,0,1,4.24-4.92,11.85,11.85,0,0,1,6.41-1.74,12.43,12.43,0,0,1,8.44,2.75,10.91,10.91,0,0,1,3.63,7.61h-6.93a5.17,5.17,0,0,0-1.33-3.78,5.46,5.46,0,0,0-3.8-1.14,4.15,4.15,0,0,0-3.8,1.95q-1.21,1.94-1.26,6.2v2q0,4.61,1.17,6.59a4.24,4.24,0,0,0,4,2,5.33,5.33,0,0,0,3.66-1.13,4.78,4.78,0,0,0,1.34-3.58h6.91Z" transform="translate(-515.71 -39.61)" fill="#333"/><path d="M578.83,173.78a17,17,0,0,1-1.55,7.47,11.56,11.56,0,0,1-4.44,5,12.37,12.37,0,0,1-6.56,1.76,12.54,12.54,0,0,1-6.53-1.68,11.54,11.54,0,0,1-4.45-4.83,16.5,16.5,0,0,1-1.68-7.22v-1.62a17.06,17.06,0,0,1,1.54-7.47,11.54,11.54,0,0,1,4.45-5,12.47,12.47,0,0,1,6.6-1.77,12.34,12.34,0,0,1,6.54,1.73,11.73,11.73,0,0,1,4.47,5,16.59,16.59,0,0,1,1.62,7.37v1.33Zm-7.07-1.2a12.13,12.13,0,0,0-1.44-6.52,4.61,4.61,0,0,0-4.11-2.22q-5.23,0-5.51,7.85l0,2.12a12.47,12.47,0,0,0,1.41,6.51,4.6,4.6,0,0,0,4.18,2.27,4.54,4.54,0,0,0,4.06-2.24,12.14,12.14,0,0,0,1.44-6.44v-1.33Z" transform="translate(-515.71 -39.61)" fill="#333"/><path d="M598.38,182.19h-9.52l-1.66,5.39h-7.42l10.54-28.84h6.53l10.69,28.81h-7.46Zm-7.87-5.36h6.2l-3.12-10Z" transform="translate(-515.71 -39.61)" fill="#333"/><path d="M624.49,179.88a2.85,2.85,0,0,0-1.08-2.37,13.43,13.43,0,0,0-3.79-1.76,36.19,36.19,0,0,1-4.44-1.76q-5.61-2.75-5.61-7.56a6.78,6.78,0,0,1,1.39-4.23,9,9,0,0,1,3.95-2.86,15.38,15.38,0,0,1,5.74-1,13.43,13.43,0,0,1,5.57,1.1,8.83,8.83,0,0,1,3.83,3.15,8.25,8.25,0,0,1,1.37,4.68H624.5a3.49,3.49,0,0,0-1.08-2.73,4.21,4.21,0,0,0-2.92-1,4.74,4.74,0,0,0-2.94.83,2.42,2.42,0,0,0,.11,4.1,14.93,14.93,0,0,0,4.18,1.86,25.75,25.75,0,0,1,4.91,2.06q4.68,2.69,4.68,7.42a7,7,0,0,1-2.84,5.94q-2.85,2.16-7.82,2.17a15.51,15.51,0,0,1-6.35-1.25,9.57,9.57,0,0,1-4.28-3.44,9,9,0,0,1-1.44-5h7a4.42,4.42,0,0,0,1.2,3.41,5.66,5.66,0,0,0,3.89,1.09,4.47,4.47,0,0,0,2.72-.75A2.45,2.45,0,0,0,624.49,179.88Z" transform="translate(-515.71 -39.61)" fill="#333"/><path d="M657.61,164H649l0,23.46H642l0-23.46h-8.49v-5.37l24.09,0V164Z" transform="translate(-515.71 -39.61)" fill="#333"/><path d="M683.19,176.72l3.28-18.08h6.89l-6.08,28.83h-7.21l-3.88-16.43-3.76,16.44h-7.19l-6.17-28.82H666l3.33,18.07,3.94-18.08h5.9Z" transform="translate(-515.71 -39.61)" fill="#333"/><path d="M711.62,182.05H702.1l-1.66,5.39H693l10.54-28.84h6.53l10.69,28.81h-7.46Zm-7.87-5.36H710l-3.12-10Z" transform="translate(-515.71 -39.61)" fill="#333"/><path d="M733.57,177.22h-3.76v10.2h-6.95l0-28.82h11.34q5.13,0,8,2.26a7.71,7.71,0,0,1,2.9,6.42,9.36,9.36,0,0,1-1.21,5,8.64,8.64,0,0,1-3.81,3.21l6,11.63v0.3h-7.44Zm-3.77-5.34h4.4a3.94,3.94,0,0,0,3-1,4.74,4.74,0,0,0,0-5.83,3.91,3.91,0,0,0-3-1.06h-4.4v7.94Z" transform="translate(-515.71 -39.61)" fill="#333"/><path d="M749.32,187.39l0-28.82h9.28a13.66,13.66,0,0,1,6.87,1.72,12.18,12.18,0,0,1,4.77,4.88,14.78,14.78,0,0,1,1.74,7.08v1.33a14.83,14.83,0,0,1-1.66,7.1,12.23,12.23,0,0,1-4.71,4.92,13.35,13.35,0,0,1-6.78,1.8h-9.48Zm6.92-23.47,0,18.11h2.42a5.41,5.41,0,0,0,4.59-2.13q1.6-2.13,1.6-6.33v-1.25q0-4.18-1.61-6.29a5.5,5.5,0,0,0-4.68-2.11h-2.34Z" transform="translate(-515.71 -39.61)" fill="#333"/><path d="M790.39,179.68a2.85,2.85,0,0,0-1.08-2.37,13.4,13.4,0,0,0-3.79-1.76,36.17,36.17,0,0,1-4.44-1.76q-5.61-2.75-5.61-7.56a6.78,6.78,0,0,1,1.39-4.23,9,9,0,0,1,3.95-2.86,15.38,15.38,0,0,1,5.74-1,13.45,13.45,0,0,1,5.57,1.1,8.83,8.83,0,0,1,3.83,3.15,8.25,8.25,0,0,1,1.37,4.68h-6.93a3.48,3.48,0,0,0-1.08-2.73,4.21,4.21,0,0,0-2.92-1,4.74,4.74,0,0,0-2.94.83,2.42,2.42,0,0,0,.11,4.1,15,15,0,0,0,4.18,1.86,25.62,25.62,0,0,1,4.91,2.06q4.68,2.69,4.68,7.42a7,7,0,0,1-2.84,5.94q-2.85,2.16-7.82,2.17a15.49,15.49,0,0,1-6.35-1.25,9.57,9.57,0,0,1-4.28-3.44,9,9,0,0,1-1.44-5h7a4.42,4.42,0,0,0,1.2,3.41,5.66,5.66,0,0,0,3.89,1.09,4.47,4.47,0,0,0,2.72-.75A2.45,2.45,0,0,0,790.39,179.68Z" transform="translate(-515.71 -39.61)" fill="#333"/></svg>