<svg id="Layer_1" data-name="Layer 1" xmlns="http://www.w3.org/2000/svg" viewBox="0 0 150.44 82.73"><title>turtle-white</title><path d="M5200,525.53l-10.2-8.59a57.54,57.54,0,0,1-6.31,5.34Z" transform="translate(-5053.18 -478.66)" fill="none" stroke="#fff" stroke-miterlimit="10" stroke-width="2"/><path d="M5174.81,527.48a60.93,60.93,0,0,1-12.12,4.24l6.89,8.86H5188l-11.31-14.06C5176.08,526.85,5175.45,527.17,5174.81,527.48Z" transform="translate(-5053.18 -478.66)" fill="none" stroke="#fff" stroke-miterlimit="10" stroke-width="2"/><path d="M5176.69,526.53a55.62,55.62,0,0,0,6.81-4.26" transform="translate(-5053.18 -478.66)" fill="none" stroke="#fff" stroke-miterlimit="10" stroke-width="2"/><path d="M5176.69,526.53" transform="translate(-5053.18 -478.66)" fill="none" stroke="#fff" stroke-miterlimit="10" stroke-width="2"/><path d="M5093.4,494.64" transform="translate(-5053.18 -478.66)" fill="none" stroke="#fff" stroke-miterlimit="10" stroke-width="2"/><path d="M5189.81,516.94c0.6-.59,1.17-1.16,1.66-1.68-31-39.49-68.74-34.4-81.15-27.43-7.3,3.27-16.57,3.86-16.57,3.86-0.16,1-.28,2-0.35,3" transform="translate(-5053.18 -478.66)" fill="none" stroke="#fff" stroke-miterlimit="10" stroke-width="2"/><path d="M5095.71,509.58a29.68,29.68,0,0,1-2.31-14.94c-0.46-.11-0.93-0.24-1.42-0.4a15,15,0,0,1-5.78-3.63A37.74,37.74,0,0,0,5055,479.93a20.2,20.2,0,0,0,1.42,15c5.31,9.9,24.73,10.79,29.67,14.13a18.28,18.28,0,0,1,4.86,4.84c0.49,0.72.85,1.38,1.12,1.88,3.84,6.92,11.54,20.73,13.4,24.8h17.25l-8.62-13.66C5105.69,522.82,5099,517,5095.71,509.58Z" transform="translate(-5053.18 -478.66)" fill="none" stroke="#fff" stroke-miterlimit="10" stroke-width="2"/><path d="M5114.11,526.93" transform="translate(-5053.18 -478.66)" fill="none" stroke="#fff" stroke-miterlimit="10" stroke-width="2"/><path d="M5162.69,531.73" transform="translate(-5053.18 -478.66)" fill="none" stroke="#fff" stroke-miterlimit="10" stroke-width="2"/><path d="M5114.11,526.93c13.78,6.72,32.27,8.71,48.58,4.8" transform="translate(-5053.18 -478.66)" fill="none" stroke="#fff" stroke-miterlimit="10" stroke-width="2"/><path d="M5066.1,487.11a2.52,2.52,0,1,1-2.37-2.59A2.5,2.5,0,0,1,5066.1,487.11Z" transform="translate(-5053.18 -478.66)" fill="#fff"/><path d="M5068.08,555.73a6,6,0,0,1-.88,3,5.35,5.35,0,0,1-2.26,2,7.51,7.51,0,0,1-3.32.71,6.06,6.06,0,0,1-4.85-2.06,8.67,8.67,0,0,1-1.77-5.82v-0.79a9.94,9.94,0,0,1,.8-4.13,6.18,6.18,0,0,1,2.3-2.74,6.3,6.3,0,0,1,3.48-1,6.62,6.62,0,0,1,4.57,1.54,6.14,6.14,0,0,1,2,4.24h-3.76a2.42,2.42,0,0,0-2.78-2.75,2.24,2.24,0,0,0-2.06,1.08,7.11,7.11,0,0,0-.69,3.45v1.14a7.87,7.87,0,0,0,.63,3.67,2.28,2.28,0,0,0,2.16,1.1,2.84,2.84,0,0,0,2-.63,2.71,2.71,0,0,0,.73-2h3.75Z" transform="translate(-5053.18 -478.66)" fill="#fff"/><path d="M5083.1,553.47a9.68,9.68,0,0,1-.85,4.16,6.38,6.38,0,0,1-2.41,2.79,6.57,6.57,0,0,1-3.56,1,6.66,6.66,0,0,1-3.54-.94,6.36,6.36,0,0,1-2.41-2.7,9.41,9.41,0,0,1-.91-4v-0.9a9.73,9.73,0,0,1,.84-4.16,6.37,6.37,0,0,1,2.42-2.78,7,7,0,0,1,7.12,0,6.49,6.49,0,0,1,2.42,2.76,9.45,9.45,0,0,1,.88,4.11v0.74Zm-3.83-.67a6.9,6.9,0,0,0-.78-3.63,2.48,2.48,0,0,0-2.23-1.24q-2.83,0-3,4.37v1.18a7.1,7.1,0,0,0,.76,3.63,2.48,2.48,0,0,0,2.27,1.27,2.45,2.45,0,0,0,2.2-1.25,6.9,6.9,0,0,0,.78-3.58V552.8Z" transform="translate(-5053.18 -478.66)" fill="#fff"/><path d="M5093.7,558.17h-5.16l-0.9,3h-4l5.73-16.05h3.54l5.78,16.05h-4Zm-4.26-3h3.36l-1.68-5.57Z" transform="translate(-5053.18 -478.66)" fill="#fff"/><path d="M5107.85,556.9a1.61,1.61,0,0,0-.58-1.32,7.22,7.22,0,0,0-2.06-1,19.35,19.35,0,0,1-2.4-1q-3-1.53-3-4.21a3.85,3.85,0,0,1,.76-2.35,4.91,4.91,0,0,1,2.14-1.59,8.15,8.15,0,0,1,3.11-.57,7.13,7.13,0,0,1,3,.62,4.81,4.81,0,0,1,2.08,1.76,4.68,4.68,0,0,1,.74,2.61h-3.76a2,2,0,0,0-.58-1.52,2.25,2.25,0,0,0-1.58-.54,2.52,2.52,0,0,0-1.59.46,1.37,1.37,0,0,0,.06,2.28,8,8,0,0,0,2.26,1,13.73,13.73,0,0,1,2.66,1.15,4.61,4.61,0,0,1,2.53,4.14,4,4,0,0,1-1.55,3.31,6.74,6.74,0,0,1-4.24,1.2,8.22,8.22,0,0,1-3.44-.7,5.22,5.22,0,0,1-2.32-1.92,5.1,5.1,0,0,1-.78-2.81h3.78a2.5,2.5,0,0,0,.65,1.9,3,3,0,0,0,2.11.61,2.37,2.37,0,0,0,1.48-.41A1.38,1.38,0,0,0,5107.85,556.9Z" transform="translate(-5053.18 -478.66)" fill="#fff"/><path d="M5125.82,548.1h-4.69v13.07h-3.77V548.1h-4.6v-3h13.06v3Z" transform="translate(-5053.18 -478.66)" fill="#fff"/><path d="M5139.68,555.18l1.79-10.07h3.74l-3.32,16.05H5138l-2.09-9.15-2,9.15h-3.9l-3.33-16.05h3.75l1.79,10.07,2.15-10.07h3.2Z" transform="translate(-5053.18 -478.66)" fill="#fff"/><path d="M5155.1,558.17h-5.16l-0.9,3h-4l5.73-16.05h3.54l5.78,16.05h-4Zm-4.26-3h3.36l-1.68-5.57Z" transform="translate(-5053.18 -478.66)" fill="#fff"/><path d="M5167,555.49h-2v5.68h-3.77V545.11h6.15a6.74,6.74,0,0,1,4.35,1.27,4.34,4.34,0,0,1,1.57,3.58,5.32,5.32,0,0,1-.66,2.78,4.72,4.72,0,0,1-2.07,1.78l3.26,6.48v0.17h-4Zm-2-3h2.38a2.11,2.11,0,0,0,1.62-.58,2.28,2.28,0,0,0,.54-1.62,2.31,2.31,0,0,0-.55-1.63,2.09,2.09,0,0,0-1.61-.59H5165v4.42Z" transform="translate(-5053.18 -478.66)" fill="#fff"/><path d="M5175.54,561.17V545.11h5a7.25,7.25,0,0,1,3.72,1,6.69,6.69,0,0,1,2.58,2.72,8.39,8.39,0,0,1,.94,3.94v0.74a8.45,8.45,0,0,1-.91,4,6.73,6.73,0,0,1-2.55,2.73,7.09,7.09,0,0,1-3.68,1h-5.14Zm3.77-13.07v10.09h1.31a2.9,2.9,0,0,0,2.49-1.19,5.93,5.93,0,0,0,.87-3.52v-0.7a5.88,5.88,0,0,0-.87-3.51,3,3,0,0,0-2.53-1.18h-1.27Z" transform="translate(-5053.18 -478.66)" fill="#fff"/><path d="M5197.81,556.9a1.61,1.61,0,0,0-.58-1.32,7.22,7.22,0,0,0-2.06-1,19.35,19.35,0,0,1-2.4-1q-3-1.53-3-4.21a3.85,3.85,0,0,1,.76-2.35,4.91,4.91,0,0,1,2.14-1.59,8.15,8.15,0,0,1,3.11-.57,7.13,7.13,0,0,1,3,.62,4.81,4.81,0,0,1,2.08,1.76,4.68,4.68,0,0,1,.74,2.61h-3.76a2,2,0,0,0-.58-1.52,2.25,2.25,0,0,0-1.58-.54,2.52,2.52,0,0,0-1.59.46,1.37,1.37,0,0,0,.06,2.28,8,8,0,0,0,2.26,1,13.73,13.73,0,0,1,2.66,1.15,4.61,4.61,0,0,1,2.53,4.14,4,4,0,0,1-1.55,3.31,6.74,6.74,0,0,1-4.24,1.2,8.22,8.22,0,0,1-3.44-.7,5.22,5.22,0,0,1-2.32-1.92,5.1,5.1,0,0,1-.78-2.81H5193a2.5,2.5,0,0,0,.65,1.9,3,3,0,0,0,2.11.61,2.37,2.37,0,0,0,1.48-.41A1.38,1.38,0,0,0,5197.81,556.9Z" transform="translate(-5053.18 -478.66)" fill="#fff"/></svg>