<svg id="Layer_1" data-name="Layer 1" xmlns="http://www.w3.org/2000/svg" viewBox="0 0 320.88 171.71"><title>turtle</title><polyline points="293.12 81.8 320.88 105.18 275.36 96.2" fill="#333"/><path d="M1203.94,155.68c1,1.53,1.79,2.91,2.38,4,8.13,14.64,26.11,47.38,30,56h37l-30-47.57-26.11-52.3A32.82,32.82,0,0,1,1206.1,114a31.66,31.66,0,0,1-12.23-7.67,79.84,79.84,0,0,0-66-22.59c-1,3.42-4.69,17.43,3,31.76,11.24,20.95,52.31,22.82,62.77,29.9A38.67,38.67,0,0,1,1203.94,155.68Z" transform="translate(-1126.12 -83.21)" fill="#333"/><path d="M1151.34,99a5.34,5.34,0,1,1-5-5.47A5.28,5.28,0,0,1,1151.34,99Z" transform="translate(-1126.12 -83.21)" fill="#fff"/><path d="M1411.58,215.64l-24.75-30.77-34.26,5c3.73,4.85,15.65,20.13,20,25.79h39Z" transform="translate(-1126.12 -83.21)" fill="#333"/><path d="M1212.2,112.19s19.59-1.24,35-8.16c26.25-14.74,106.16-25.52,171.67,58a120.2,120.2,0,0,1-35.25,25.86c-58.18,27.88-145.87,9.91-167.34-37.89C1212.8,142.18,1209.43,129.88,1212.2,112.19Z" transform="translate(-1126.12 -83.21)" fill="#333" stroke="#fff" stroke-linecap="round" stroke-miterlimit="10" stroke-width="5"/><path d="M1173.67,243.88a11.42,11.42,0,0,1-1.75,5.77,10.63,10.63,0,0,1-4.52,3.88,15.39,15.39,0,0,1-6.65,1.38q-6.17,0-9.72-4t-3.56-11.34V238a18.93,18.93,0,0,1,1.59-8,12.12,12.12,0,0,1,4.6-5.33,12.86,12.86,0,0,1,7-1.89,13.48,13.48,0,0,1,9.16,3,11.84,11.84,0,0,1,3.94,8.26h-7.52a5.6,5.6,0,0,0-1.44-4.1,5.92,5.92,0,0,0-4.13-1.24,4.5,4.5,0,0,0-4.12,2.11q-1.31,2.11-1.37,6.73v2.21q0,5,1.27,7.15a4.6,4.6,0,0,0,4.33,2.14,5.79,5.79,0,0,0,4-1.23,5.2,5.2,0,0,0,1.46-3.89h7.5Z" transform="translate(-1126.12 -83.21)" fill="#333"/><path d="M1203.72,239.44a18.45,18.45,0,0,1-1.69,8.1,12.54,12.54,0,0,1-4.82,5.43,13.42,13.42,0,0,1-7.12,1.91,13.62,13.62,0,0,1-7.09-1.83,12.52,12.52,0,0,1-4.83-5.25,17.9,17.9,0,0,1-1.83-7.84v-1.76a18.52,18.52,0,0,1,1.68-8.11,12.51,12.51,0,0,1,4.83-5.43,14.31,14.31,0,0,1,14.25,0A12.75,12.75,0,0,1,1202,230a18,18,0,0,1,1.76,8v1.44Zm-7.67-1.3q0-4.66-1.57-7.08a5,5,0,0,0-4.46-2.41q-5.67,0-6,8.52l0,2.3a13.52,13.52,0,0,0,1.53,7.07,5,5,0,0,0,4.54,2.46,4.93,4.93,0,0,0,4.4-2.43,13.16,13.16,0,0,0,1.56-7v-1.44Z" transform="translate(-1126.12 -83.21)" fill="#333"/><path d="M1224.94,248.57H1214.6l-1.8,5.85h-8.06l11.43-31.3h7.09l11.6,31.27h-8.1Zm-8.54-5.81h6.72l-3.39-10.85Z" transform="translate(-1126.12 -83.21)" fill="#333"/><path d="M1253.27,246.06a3.1,3.1,0,0,0-1.17-2.58,14.56,14.56,0,0,0-4.12-1.91,39.26,39.26,0,0,1-4.81-1.91q-6.08-3-6.09-8.2a7.36,7.36,0,0,1,1.51-4.59,9.8,9.8,0,0,1,4.28-3.1,16.69,16.69,0,0,1,6.23-1.11,14.59,14.59,0,0,1,6,1.2,9.58,9.58,0,0,1,4.16,3.42,8.94,8.94,0,0,1,1.49,5.08h-7.52a3.78,3.78,0,0,0-1.17-3,4.57,4.57,0,0,0-3.17-1,5.15,5.15,0,0,0-3.19.9,2.63,2.63,0,0,0,.12,4.45,16.25,16.25,0,0,0,4.54,2,27.84,27.84,0,0,1,5.33,2.24q5.07,2.92,5.08,8.05a7.64,7.64,0,0,1-3.09,6.45q-3.09,2.35-8.48,2.35a16.83,16.83,0,0,1-6.89-1.36,10.38,10.38,0,0,1-4.65-3.73,9.74,9.74,0,0,1-1.56-5.47h7.56a4.79,4.79,0,0,0,1.3,3.7,6.14,6.14,0,0,0,4.22,1.19,4.85,4.85,0,0,0,3-.81A2.66,2.66,0,0,0,1253.27,246.06Z" transform="translate(-1126.12 -83.21)" fill="#333"/><path d="M1289.22,228.87h-9.39l0,25.46h-7.54l0-25.46h-9.22v-5.82l26.15,0v5.82Z" transform="translate(-1126.12 -83.21)" fill="#333"/><path d="M1317,242.63l3.56-19.62H1328l-6.6,31.29h-7.82l-4.21-17.83-4.08,17.84h-7.8l-6.7-31.27h7.5l3.61,19.61,4.27-19.62h6.4Z" transform="translate(-1126.12 -83.21)" fill="#333"/><path d="M1347.83,248.42h-10.33l-1.8,5.85h-8.06l11.43-31.3h7.09l11.6,31.27h-8.1Zm-8.54-5.81H1346l-3.39-10.85Z" transform="translate(-1126.12 -83.21)" fill="#333"/><path d="M1371.65,243.17h-4.08v11.06H1360l0-31.28,12.31,0q5.56,0,8.7,2.46a8.37,8.37,0,0,1,3.15,7,10.15,10.15,0,0,1-1.32,5.41,9.37,9.37,0,0,1-4.13,3.48l6.55,12.62v0.32h-8.08Zm-4.09-5.8h4.77a4.28,4.28,0,0,0,3.23-1.13,4.37,4.37,0,0,0,1.08-3.16,4.42,4.42,0,0,0-1.1-3.18,4.24,4.24,0,0,0-3.22-1.15h-4.77v8.62Z" transform="translate(-1126.12 -83.21)" fill="#333"/><path d="M1388.74,254.21l0-31.28h10.08a14.82,14.82,0,0,1,7.46,1.87,13.22,13.22,0,0,1,5.17,5.3,16,16,0,0,1,1.89,7.68v1.44a16.11,16.11,0,0,1-1.81,7.7,13.27,13.27,0,0,1-5.11,5.33,14.49,14.49,0,0,1-7.36,2h-10.29Zm7.51-25.47,0,19.66h2.62a5.87,5.87,0,0,0,5-2.32q1.74-2.31,1.73-6.87v-1.35q0-4.53-1.75-6.83a6,6,0,0,0-5.07-2.29h-2.54Z" transform="translate(-1126.12 -83.21)" fill="#333"/><path d="M1433.31,245.84a3.1,3.1,0,0,0-1.17-2.58,14.56,14.56,0,0,0-4.12-1.91,39.26,39.26,0,0,1-4.81-1.91q-6.08-3-6.09-8.2a7.36,7.36,0,0,1,1.51-4.59,9.8,9.8,0,0,1,4.28-3.1,16.69,16.69,0,0,1,6.23-1.11,14.6,14.6,0,0,1,6,1.2,9.58,9.58,0,0,1,4.16,3.42,8.94,8.94,0,0,1,1.49,5.08h-7.52a3.78,3.78,0,0,0-1.17-3,4.57,4.57,0,0,0-3.17-1,5.15,5.15,0,0,0-3.19.9,2.63,2.63,0,0,0,.12,4.45,16.23,16.23,0,0,0,4.54,2,27.87,27.87,0,0,1,5.33,2.24q5.07,2.92,5.08,8.05a7.64,7.64,0,0,1-3.09,6.45q-3.09,2.35-8.48,2.35a16.83,16.83,0,0,1-6.89-1.36,10.38,10.38,0,0,1-4.65-3.73,9.74,9.74,0,0,1-1.56-5.47h7.56a4.8,4.8,0,0,0,1.3,3.7,6.14,6.14,0,0,0,4.22,1.19,4.85,4.85,0,0,0,3-.81A2.66,2.66,0,0,0,1433.31,245.84Z" transform="translate(-1126.12 -83.21)" fill="#333"/></svg>