<svg xmlns="http://www.w3.org/2000/svg" viewBox="0 0 321.34 321.34"><defs><style>.cls-1{fill:#fff;}.cls-2{fill:none;stroke:#fff;stroke-miterlimit:10;stroke-width:20px;}</style></defs><title>faces-white</title><g id="Layer_2" data-name="Layer 2"><g id="Layer_1-2" data-name="Layer 1"><path class="cls-1" d="M221.7,107.8a67.56,67.56,0,1,0,67.56,67.56A67.56,67.56,0,0,0,221.7,107.8Zm-37.4,57.26a12.21,12.21,0,1,1,12.21,12.21A12.21,12.21,0,0,1,184.3,165.07ZM224.09,215a31.13,31.13,0,0,1-28.52-18h56.3A31.12,31.12,0,0,1,224.09,215Zm23.27-37.73a12.21,12.21,0,1,1,12.21-12.21A12.21,12.21,0,0,1,247.36,177.27Z"/><path class="cls-1" d="M113.7,67.8a67.56,67.56,0,1,0,67.56,67.56A67.56,67.56,0,0,0,113.7,67.8ZM75.3,125.07A12.21,12.21,0,1,1,87.5,137.27,12.21,12.21,0,0,1,75.3,125.07ZM115.09,175a31.13,31.13,0,0,1-28.52-18h56.3A31.12,31.12,0,0,1,115.09,175Zm23.27-37.73a12.21,12.21,0,1,1,12.21-12.21A12.21,12.21,0,0,1,138.36,137.27Z"/><path class="cls-1" d="M144.75,186.8a44.61,44.61,0,1,0,44.61,44.61A44.61,44.61,0,0,0,144.75,186.8Zm-25.34,38.47a8.06,8.06,0,1,1,8.06,8.06A8.06,8.06,0,0,1,119.41,225.27Zm26.28,33a20.55,20.55,0,0,1-18.83-11.9H164A20.55,20.55,0,0,1,145.69,258.25ZM161,233.33a8.06,8.06,0,1,1,8.06-8.06A8.06,8.06,0,0,1,161,233.33Z"/><circle class="cls-2" cx="160.67" cy="160.67" r="150.67"/><line class="cls-2" x1="58.2" y1="261.62" x2="261.62" y2="58.2"/></g></g></svg>