<svg id="Layer_1" data-name="Layer 1" xmlns="http://www.w3.org/2000/svg" viewBox="0 0 159.96 159.96"><title>harbor-white</title><path d="M1596.63,377.76v11.59a75,75,0,0,0,138.16-11.59H1596.63Z" transform="translate(-1583.34 -275.02)" fill="#0071bc" stroke="#0071bc" stroke-miterlimit="10" stroke-width="9.96"/><rect x="24.33" y="82.83" width="13.85" height="4.48" fill="#fff"/><path d="M1621.52,362.83h-13.85l-0.5-.5v-4.48l0.5-.5h13.85l0.5,0.5v4.48Zm-13.36-1H1621v-3.48h-12.86v3.48Z" transform="translate(-1583.34 -275.02)" fill="#fff"/><polygon points="26.07 82.83 24.65 81.36 24.65 76.65 26.86 74.88 26.86 69.11 24.65 69.11 24.65 65.66 36.77 65.66 36.77 69.11 38.18 69.11 38.18 80.51 36.44 82.83 26.07 82.83" fill="#fff"/><path d="M1619.78,358.35h-10.37l-0.36-.15-1.42-1.47-0.14-.35v-4.71l0.19-.39,2-1.62v-5H1608l-0.5-.5v-3.46l0.5-.5h12.13l0.5,0.5v3h0.91l0.5,0.5v11.4l-0.1.3-1.74,2.32Zm-10.16-1h9.91l1.49-2V344.63h-0.91l-0.5-.5v-3h-11.13v2.46h1.71l0.5,0.5v5.76l-0.19.39-2,1.62v4.27Z" transform="translate(-1583.34 -275.02)" fill="#fff"/><rect x="129.28" y="54.04" width="2.39" height="0.5" fill="#fff"/><rect x="7.01" y="86.81" width="36.78" height="2.78" fill="#fff"/><path d="M1627.12,372.72h-38.81V361.83h38.81v10.89Zm-38-1h37.23v-8.9H1589.1v8.9Z" transform="translate(-1583.34 -275.02)" fill="#fff"/><rect x="39.24" y="88.2" width="0.5" height="9" fill="#fff"/><rect x="1616" y="367.48" width="9.8" height="0.5" transform="translate(-939.28 1437.44) rotate(-66.79)" fill="#fff"/><rect x="33.83" y="88.2" width="0.5" height="9" fill="#fff"/><rect x="1610.59" y="367.48" width="9.8" height="0.5" transform="translate(-942.56 1432.47) rotate(-66.79)" fill="#fff"/><rect x="29.18" y="88.2" width="0.5" height="9" fill="#fff"/><rect x="1605.94" y="367.48" width="9.8" height="0.5" transform="translate(-945.38 1428.19) rotate(-66.79)" fill="#fff"/><rect x="24.4" y="88.2" width="0.5" height="9" fill="#fff"/><rect x="1601.16" y="367.48" width="9.8" height="0.5" transform="translate(-948.27 1423.8) rotate(-66.79)" fill="#fff"/><rect x="19.25" y="88.2" width="0.5" height="9" fill="#fff"/><rect x="1596.01" y="367.48" width="9.8" height="0.5" transform="translate(-951.39 1419.07) rotate(-66.79)" fill="#fff"/><rect x="14.04" y="88.2" width="0.5" height="9" fill="#fff"/><rect x="1590.8" y="367.48" width="9.8" height="0.5" transform="translate(-954.55 1414.28) rotate(-66.79)" fill="#fff"/><rect x="47.15" y="79.36" width="25.82" height="3.23" fill="#0076b7"/><rect x="48.87" y="82.58" width="22.38" height="11.99" fill="#fff"/><rect x="56.1" y="84.66" width="2.65" height="1.08" fill="#0071bc"/><rect x="59.59" y="84.66" width="2.65" height="1.08" fill="#0071bc"/><rect x="63.07" y="84.66" width="2.65" height="1.08" fill="#0071bc"/><rect x="66.56" y="84.66" width="2.65" height="1.08" fill="#0071bc"/><rect x="56.1" y="86.77" width="2.65" height="1.08" fill="#0071bc"/><rect x="59.59" y="86.77" width="2.65" height="1.08" fill="#0071bc"/><rect x="63.07" y="86.77" width="2.65" height="1.08" fill="#0071bc"/><rect x="66.56" y="86.77" width="2.65" height="1.08" fill="#0071bc"/><path d="M1635.46,381.08a13.11,13.11,0,0,1-5.14-11.12l60.07-15,3.65-3.12a80.19,80.19,0,0,1,34-1.33,53.15,53.15,0,0,1-9,23.43l1.49,7.1h-85.12Z" transform="translate(-1583.34 -275.02)" fill="#fff"/><path d="M1721.5,381.83h-86.29l-0.2-.15a13.85,13.85,0,0,1-5.44-11.75l0-.55,10.53-2.62L1690,354.32l3.65-3.12,0.17,0a80.94,80.94,0,0,1,34.33-1.34l0.7,0.12-0.09.71a53.89,53.89,0,0,1-8.9,23.49Zm-85.78-1.49h83.94l-1.37-6.51,0.18-.26a52.4,52.4,0,0,0,8.74-22.39,79.45,79.45,0,0,0-32.83,1.39l-3.65,3.12-0.17,0L1631,370.55A12.35,12.35,0,0,0,1635.72,380.34Z" transform="translate(-1583.34 -275.02)" fill="#fff"/><path d="M1694.35,352l-0.47-.18,1.45-3.85,0.12,0a59.73,59.73,0,0,1,32.66,0l0.18,0.05v2.35h-0.5v-2a59.23,59.23,0,0,0-32.08,0Z" transform="translate(-1583.34 -275.02)" fill="#fff"/><rect x="114.35" y="72.58" width="0.5" height="3.12" fill="#fff"/><rect x="117.89" y="71.84" width="0.5" height="3.35" fill="#fff"/><rect x="120.91" y="71.39" width="0.5" height="3.56" fill="#fff"/><rect x="123.89" y="71.1" width="0.5" height="3.04" fill="#fff"/><rect x="127.87" y="71.1" width="0.5" height="3.04" fill="#fff"/><rect x="133.18" y="71.39" width="0.5" height="2.55" fill="#fff"/><rect x="136.66" y="71.84" width="0.5" height="2.1" fill="#fff"/><rect x="139.93" y="72.11" width="0.5" height="2.2" fill="#fff"/><rect x="142.42" y="72.67" width="0.5" height="2.53" fill="#fff"/><polyline points="128.94 74.33 128.97 73.93 130.61 51.47 130.27 73.52" fill="#fff"/><polygon points="129.19 74.34 128.7 74.31 130.36 51.45 130.85 51.47 130.52 73.53 130.03 73.52 130.23 60.13 129.19 74.34" fill="#fff"/><polyline points="10.06 81.59 13.13 73.03 14.73 81.36 19.21 71.86 20.49 81.07 25.72 70.62 27.92 80.7 34.08 69.02 37.56 80.22 45.69 66.8 53.68 75 61.47 63.78 67.89 70.4 75.34 61.12 81.88 65.88 85.65 59.15 88.56 63.45" fill="none" stroke="#fff" stroke-linecap="square" stroke-linejoin="bevel"/><polygon points="6.08 74.38 92.07 57.92 88.71 63.67 37.56 80.22 6.08 81.79 6.08 74.38" fill="none" stroke="#fff" stroke-miterlimit="10"/><polygon points="46.24 77.78 45.81 77.53 52.91 65.25 53.28 65.18 61.63 72.04 67.67 62.42 68.03 62.35 75.34 67.64 82.1 59.63 82.46 59.61 87.31 64.22 86.97 64.58 82.31 60.15 75.57 68.14 75.23 68.18 67.95 62.91 61.9 72.54 61.53 72.6 53.2 65.75 46.24 77.78" fill="#fff"/><rect x="92.75" y="57.32" width="0.37" height="0.5" fill="#fff"/><path d="M1676.46,342.91h-0.37v-1h0.37v1Zm0-2h-0.37v-1h0.37v1Zm0-2h-0.37v-1h0.37v1Zm0-2h-0.37v-1h0.37v1Zm0-2h-0.37v-1h0.37v1Z" transform="translate(-1583.34 -275.02)" fill="#fff"/><rect x="92.75" y="68.89" width="0.37" height="0.5" fill="#fff"/><rect x="87.96" y="69.39" width="9.71" height="4.73" fill="#fff"/><path d="M1681.19,349.33h-10.08v-5.1h10.08v5.1Zm-9.71-.37h9.33V344.6h-9.33V349Z" transform="translate(-1583.34 -275.02)" fill="#fff"/><ellipse cx="43.04" cy="43.01" rx="12.82" ry="3.98" fill="#fff"/><path d="M1626.37,322.51c-6.46,0-13.32-1.57-13.32-4.48s6.86-4.48,13.32-4.48,13.32,1.57,13.32,4.48S1632.83,322.51,1626.37,322.51Zm0-8c-7.26,0-12.32,1.84-12.32,3.48s5.06,3.48,12.32,3.48,12.32-1.84,12.32-3.48S1633.64,314.55,1626.37,314.55Z" transform="translate(-1583.34 -275.02)" fill="#fff"/><ellipse cx="50.75" cy="39.03" rx="12.82" ry="3.98" fill="#fff"/><path d="M1634.09,318.53c-6.46,0-13.32-1.57-13.32-4.48s6.86-4.48,13.32-4.48,13.32,1.57,13.32,4.48S1640.55,318.53,1634.09,318.53Zm0-8c-7.26,0-12.32,1.84-12.32,3.48s5.06,3.48,12.32,3.48,12.32-1.84,12.32-3.48S1641.35,310.56,1634.09,310.56Z" transform="translate(-1583.34 -275.02)" fill="#fff"/><ellipse cx="55.86" cy="43.01" rx="12.82" ry="3.98" fill="#fff"/><path d="M1639.19,322.51c-6.46,0-13.32-1.57-13.32-4.48s6.86-4.48,13.32-4.48,13.32,1.57,13.32,4.48S1645.65,322.51,1639.19,322.51Zm0-8c-7.26,0-12.32,1.84-12.32,3.48s5.06,3.48,12.32,3.48,12.32-1.84,12.32-3.48S1646.45,314.55,1639.19,314.55Z" transform="translate(-1583.34 -275.02)" fill="#fff"/><ellipse cx="79.98" cy="31.24" rx="8.59" ry="2.67" fill="#fff"/><path d="M1663.32,309.43c-4.52,0-9.09-1.09-9.09-3.17s4.57-3.17,9.09-3.17,9.09,1.09,9.09,3.17S1667.83,309.43,1663.32,309.43Zm0-5.34c-4.94,0-8.09,1.29-8.09,2.17s3.15,2.17,8.09,2.17,8.09-1.29,8.09-2.17S1668.25,304.09,1663.32,304.09Z" transform="translate(-1583.34 -275.02)" fill="#fff"/><ellipse cx="83.4" cy="28.57" rx="5.17" ry="2.67" fill="#fff"/><path d="M1666.74,306.76c-3.18,0-5.67-1.39-5.67-3.17s2.49-3.17,5.67-3.17,5.67,1.39,5.67,3.17S1669.91,306.76,1666.74,306.76Zm0-5.34c-2.75,0-4.67,1.14-4.67,2.17s1.92,2.17,4.67,2.17,4.67-1.14,4.67-2.17S1669.49,301.42,1666.74,301.42Z" transform="translate(-1583.34 -275.02)" fill="#fff"/><path d="M1661.07,429.93h0Z" transform="translate(-1583.34 -275.02)" fill="#fff" stroke="#fff" stroke-miterlimit="10" stroke-width="9.96"/><path d="M1590.74,373.93l0.07,0.29-0.07-.29h0Z" transform="translate(-1583.34 -275.02)" fill="#fff" stroke="#fff" stroke-miterlimit="10" stroke-width="9.96"/><path d="M1591.52,375.17h-0.47c-0.08-.31-0.16-0.63-0.24-0.95,7.9,32.11,35,55.78,67.27,55.78,1,0,2,0,3-.07l-1.19,0C1650.73,398.24,1623.55,375.17,1591.52,375.17Z" transform="translate(-1583.34 -275.02)" fill="#fff" stroke="#fff" stroke-miterlimit="10" stroke-width="4.48"/><circle cx="79.98" cy="79.98" r="75" fill="none" stroke="#0076b7" stroke-miterlimit="10" stroke-width="9.96"/><circle cx="79.98" cy="79.98" r="75" fill="none" stroke="#fff" stroke-miterlimit="10" stroke-width="9.96"/></svg>