<svg xmlns="http://www.w3.org/2000/svg" viewBox="0 0 321.34 321.34"><defs><style>.cls-1,.cls-3{fill:#0076b7;}.cls-1,.cls-4,.cls-5,.cls-8{stroke:#0076b7;}.cls-1,.cls-5,.cls-6,.cls-7,.cls-8{stroke-miterlimit:10;}.cls-1,.cls-6,.cls-8{stroke-width:20px;}.cls-2,.cls-6,.cls-7{fill:#fff;}.cls-4,.cls-5,.cls-8{fill:none;}.cls-4{stroke-linecap:square;stroke-linejoin:bevel;}.cls-4,.cls-5{stroke-width:2px;}.cls-6,.cls-7{stroke:#fff;}.cls-7{stroke-width:9px;}</style></defs><title>harbor_2</title><g id="Layer_2" data-name="Layer 2"><g id="Layer_1-2" data-name="Layer 1"><path class="cls-1" d="M26.71,206.4v23.29A150.72,150.72,0,0,0,304.26,206.4Z"/><rect class="cls-2" x="48.88" y="166.4" width="27.83" height="9"/><path class="cls-3" d="M76.71,176.4H48.88l-1-1v-9l1-1H76.71l1,1v9Zm-26.83-2H75.71v-7H49.88Z"/><polygon class="cls-2" points="52.38 166.4 49.52 163.45 49.52 153.98 53.96 150.42 53.96 138.84 49.52 138.84 49.52 131.9 73.88 131.9 73.88 138.84 76.71 138.84 76.71 161.75 73.21 166.4 52.38 166.4"/><path class="cls-3" d="M73.21,167.4H52.38l-.72-.3-2.86-3-.28-.7V154l.37-.78L53,149.94v-10.1H49.52l-1-1V131.9l1-1H73.88l1,1v5.94h1.83l1,1v22.9l-.2.6L74,167Zm-20.41-2H72.71l3-4V139.84H73.88l-1-1V132.9H50.52v4.94H54l1,1v11.58l-.37.78-4.07,3.26V163Z"/><rect class="cls-3" x="259.71" y="108.57" width="4.81" height="1"/><rect class="cls-3" x="14.08" y="174.4" width="73.88" height="5.58"/><path class="cls-3" d="M88,196.28H10V174.4H88Zm-76.38-2h74.8V176.4H11.58Z"/><rect class="cls-3" x="78.83" y="177.19" width="1" height="18.09"/><rect class="cls-3" x="65.62" y="185.73" width="19.68" height="1" transform="translate(-125.44 182.18) rotate(-66.79)"/><rect class="cls-3" x="67.96" y="177.19" width="1" height="18.09"/><rect class="cls-3" x="54.74" y="185.73" width="19.68" height="1" transform="translate(-132.03 172.18) rotate(-66.79)"/><rect class="cls-3" x="58.61" y="177.19" width="1" height="18.09"/><rect class="cls-3" x="45.4" y="185.73" width="19.68" height="1" transform="translate(-137.69 163.59) rotate(-66.79)"/><rect class="cls-3" x="49.02" y="177.19" width="1" height="18.09"/><rect class="cls-3" x="35.8" y="185.73" width="19.68" height="1" transform="translate(-143.5 154.77) rotate(-66.79)"/><rect class="cls-3" x="38.67" y="177.19" width="1" height="18.09"/><rect class="cls-3" x="25.46" y="185.73" width="19.68" height="1" transform="translate(-149.77 145.27) rotate(-66.79)"/><rect class="cls-3" x="28.2" y="177.19" width="1" height="18.09"/><rect class="cls-3" x="14.99" y="185.73" width="19.68" height="1" transform="translate(-156.11 135.65) rotate(-66.79)"/><rect class="cls-3" x="94.72" y="159.42" width="51.87" height="6.48"/><rect class="cls-3" x="98.17" y="165.9" width="44.97" height="24.08"/><rect class="cls-2" x="112.71" y="170.07" width="5.33" height="2.17"/><rect class="cls-2" x="119.71" y="170.07" width="5.33" height="2.17"/><rect class="cls-2" x="126.71" y="170.07" width="5.33" height="2.17"/><rect class="cls-2" x="133.71" y="170.07" width="5.33" height="2.17"/><rect class="cls-2" x="112.71" y="174.32" width="5.33" height="2.17"/><rect class="cls-2" x="119.71" y="174.32" width="5.33" height="2.17"/><rect class="cls-2" x="126.71" y="174.32" width="5.33" height="2.17"/><rect class="cls-2" x="133.71" y="174.32" width="5.33" height="2.17"/><path class="cls-2" d="M104.71,213.07a26.33,26.33,0,0,1-10.33-22.33L215,160.67l7.33-6.27a161.1,161.1,0,0,1,68.33-2.67,106.77,106.77,0,0,1-18,47.07l3,14.27Z"/><path class="cls-3" d="M277.56,214.57H104.2l-.4-.31a27.83,27.83,0,0,1-10.92-23.6l.05-1.11,21.15-5.27,100.26-25,7.33-6.26.34-.09a162.6,162.6,0,0,1,69-2.69l1.41.25-.18,1.42a108.25,108.25,0,0,1-17.89,47.2Zm-172.33-3H273.86l-2.75-13.09.37-.53A105.27,105.27,0,0,0,289,153a159.61,159.61,0,0,0-65.94,2.8L215.75,162l-.34.08L95.84,191.91a24.81,24.81,0,0,0,9.38,19.65Z"/><path class="cls-3" d="M223,154.74l-.94-.35,2.92-7.74.24-.07a120,120,0,0,1,65.61,0l.36.1v4.71h-1v-4a119,119,0,0,0-64.45,0Z"/><rect class="cls-3" x="229.73" y="145.8" width="1" height="6.26"/><rect class="cls-3" x="236.83" y="144.33" width="1" height="6.74"/><rect class="cls-3" x="242.9" y="143.42" width="1" height="7.14"/><rect class="cls-3" x="248.88" y="142.83" width="1" height="6.1"/><rect class="cls-3" x="256.88" y="142.83" width="1" height="6.1"/><rect class="cls-3" x="267.54" y="143.42" width="1" height="5.12"/><rect class="cls-3" x="274.54" y="144.33" width="1" height="4.21"/><rect class="cls-3" x="281.12" y="144.86" width="1" height="4.41"/><rect class="cls-3" x="286.11" y="145.98" width="1" height="5.08"/><polyline class="cls-3" points="259.04 149.32 259.1 148.53 262.38 103.4 261.71 147.7"/><polygon class="cls-3" points="259.54 149.35 258.54 149.28 261.88 103.36 262.88 103.41 262.21 147.71 261.21 147.69 261.61 120.8 259.54 149.35"/><polyline class="cls-4" points="20.22 163.91 26.37 146.71 29.6 163.44 38.58 144.37 41.17 162.87 51.68 141.87 56.09 162.12 68.46 138.65 75.46 161.15 91.79 134.19 107.85 150.67 123.48 128.12 136.38 141.44 151.36 122.79 164.48 132.34 172.07 118.83 177.91 127.46"/><polygon class="cls-5" points="12.21 149.42 184.96 116.36 178.21 127.9 75.46 161.15 12.21 164.32 12.21 149.42"/><polygon class="cls-3" points="92.89 156.25 92.02 155.75 106.3 131.08 107.05 130.94 123.81 144.72 135.95 125.39 136.67 125.25 151.35 135.89 164.94 119.8 165.66 119.75 175.4 129.02 174.71 129.74 165.36 120.84 151.81 136.89 151.14 136.97 136.51 126.38 124.35 145.73 123.61 145.85 106.86 132.09 92.89 156.25"/><rect class="cls-3" x="186.33" y="115.15" width="0.75" height="1"/><path class="cls-3" d="M187.08,136.38h-.75v-2h.75Zm0-4h-.75v-2h.75Zm0-4h-.75v-2h.75Zm0-4h-.75v-2h.75Zm0-4h-.75v-2h.75Z"/><rect class="cls-3" x="186.33" y="138.4" width="0.75" height="1"/><rect class="cls-3" x="176.71" y="139.4" width="19.5" height="9.5"/><path class="cls-3" d="M196.58,149.27H176.33V139h20.25Zm-19.5-.75h18.75v-8.75H177.08Z"/><ellipse class="cls-3" cx="86.46" cy="86.4" rx="25.75" ry="8"/><path class="cls-3" d="M86.46,95.4c-13,0-26.75-3.15-26.75-9s13.78-9,26.75-9,26.75,3.15,26.75,9S99.43,95.4,86.46,95.4Zm0-16c-14.59,0-24.75,3.69-24.75,7s10.16,7,24.75,7,24.75-3.69,24.75-7S101,79.4,86.46,79.4Z"/><ellipse class="cls-3" cx="101.96" cy="78.4" rx="25.75" ry="8"/><path class="cls-3" d="M102,87.4c-13,0-26.75-3.15-26.75-9s13.78-9,26.75-9,26.75,3.15,26.75,9S114.93,87.4,102,87.4Zm0-16c-14.59,0-24.75,3.69-24.75,7s10.16,7,24.75,7,24.75-3.69,24.75-7S116.54,71.4,102,71.4Z"/><ellipse class="cls-3" cx="112.21" cy="86.4" rx="25.75" ry="8"/><path class="cls-3" d="M112.21,95.4c-13,0-26.75-3.15-26.75-9s13.78-9,26.75-9S139,80.55,139,86.4,125.18,95.4,112.21,95.4Zm0-16c-14.59,0-24.75,3.69-24.75,7s10.16,7,24.75,7S137,89.71,137,86.4,126.79,79.4,112.21,79.4Z"/><ellipse class="cls-3" cx="160.67" cy="62.76" rx="17.25" ry="5.36"/><path class="cls-3" d="M160.67,69.12c-9.07,0-18.25-2.18-18.25-6.36s9.18-6.36,18.25-6.36,18.25,2.18,18.25,6.36S169.74,69.12,160.67,69.12Zm0-10.72c-9.92,0-16.25,2.58-16.25,4.36s6.33,4.36,16.25,4.36,16.25-2.58,16.25-4.36S170.59,58.4,160.67,58.4Z"/><ellipse class="cls-3" cx="167.54" cy="57.4" rx="10.38" ry="5.36"/><path class="cls-3" d="M167.54,63.76c-6.38,0-11.38-2.79-11.38-6.36s5-6.36,11.38-6.36,11.38,2.79,11.38,6.36S173.92,63.76,167.54,63.76Zm0-10.72c-5.53,0-9.38,2.3-9.38,4.36s3.85,4.36,9.38,4.36,9.38-2.3,9.38-4.36S173.07,53,167.54,53Z"/><path class="cls-6" d="M156.16,311.19Z"/><path class="cls-6" d="M14.88,198.7l.15.59-.15-.59Z"/><path class="cls-7" d="M16.44,201.18H15.5c-.16-.63-.32-1.27-.48-1.9,15.87,64.51,70.36,112.05,135.15,112.05,2,0,4-.06,5.94-.14-.79,0-1.59.07-2.39.1C135.38,247.54,80.77,201.18,16.44,201.18Z"/><circle class="cls-8" cx="160.67" cy="160.67" r="150.67"/><circle class="cls-8" cx="160.67" cy="160.67" r="150.67"/></g></g></svg>