<svg id="Layer_1" data-name="Layer 1" xmlns="http://www.w3.org/2000/svg" viewBox="0 0 326.34 326.34"><title>original</title><path d="M2612.52,1344.95v52c-0.05.19-.11,0.37-0.15,0.56a12.9,12.9,0,0,1-9.47,10.22c-0.51.15-1,.26-1.54,0.38H2587c0-.2-0.05-0.39-0.05-0.59q0-13.39,0-26.79v-0.71h0.76c3.64,0,7.29,0,10.93,0,0.53,0,.71-0.11.71-0.68,0-3.68,0-7.36,0-11,0-.21,0-0.42,0-0.71H2587c0-1.92-.09-3.76,0-5.59a2.64,2.64,0,0,1,2.95-2.65h8.55c0.25,0,.5,0,0.76,0V1347l-0.57,0h-9.21a12.33,12.33,0,0,0-7.28,2.32,15.66,15.66,0,0,0-6.61,10.83,58.25,58.25,0,0,0-.26,6.81c0,0.23,0,.45,0,0.74h-9.06c0,0.19,0,.33,0,0.46,0,3.78,0,7.56,0,11.34,0,0.51.21,0.58,0.64,0.57,2.57,0,5.15,0,7.72,0h0.75v28.08h-26c-0.17,0-.33-0.11-0.5-0.14a12.89,12.89,0,0,1-10.28-9.48c-0.15-.51-0.26-1-0.38-1.54v-52c0.07-.26.15-0.53,0.21-0.79a12.86,12.86,0,0,1,9.24-9.94c0.56-.18,1.14-0.29,1.72-0.43h52c0.15,0,.29.1,0.45,0.13a12.88,12.88,0,0,1,10.35,9.55C2612.3,1344,2612.4,1344.45,2612.52,1344.95Z" transform="translate(-2426.74 -1293.21)"/><path d="M2646.37,1509.2a36.86,36.86,0,0,1-10.59,2.9,18.49,18.49,0,0,0,8.11-10.2,36.9,36.9,0,0,1-11.71,4.47,18.45,18.45,0,0,0-31.41,16.81,52.34,52.34,0,0,1-38-19.26,18.45,18.45,0,0,0,5.7,24.61,18.36,18.36,0,0,1-8.35-2.31c0,0.08,0,.15,0,0.23a18.45,18.45,0,0,0,14.79,18.08,18.45,18.45,0,0,1-8.33.32,18.45,18.45,0,0,0,17.22,12.8,37.22,37.22,0,0,1-27.29,7.63,52.17,52.17,0,0,0,28.26,8.28c33.91,0,52.45-28.09,52.45-52.45q0-1.2-.05-2.38A37.45,37.45,0,0,0,2646.37,1509.2Z" transform="translate(-2426.74 -1293.21)"/><path d="M2505.7,1408.53h4.62a3.79,3.79,0,0,0,.52.11,37.26,37.26,0,0,1,11.24,2.63,36.89,36.89,0,0,1,15.74,12.06,35.91,35.91,0,0,1,7.13,17.36c0.11,0.86.24,1.72,0.35,2.57v4.62a3.9,3.9,0,0,0-.12.52,37.65,37.65,0,0,1-2.37,10.43,37,37,0,0,1-8.43,12.9,36.27,36.27,0,0,1-7.95,6,37.66,37.66,0,0,1-36.06.47,1.31,1.31,0,0,0-.9-0.08c-2.2.67-4.4,1.38-6.59,2.08l-9.71,3.09c-1.23.39-2.44,0.82-3.66,1.24l-0.24-.24c0.13-.29.29-0.57,0.39-0.87,0.83-2.43,1.64-4.87,2.47-7.3,1.24-3.66,2.49-7.31,3.71-11a1.42,1.42,0,0,0-.09-1c-0.45-.95-1-1.85-1.45-2.79a36.75,36.75,0,0,1,3.81-38,37.37,37.37,0,0,1,24.85-14.49Zm-27,66.84,1.42-.42c3.33-1.06,6.67-2.11,10-3.19a1.42,1.42,0,0,1,1.24.15c1.47,0.8,2.93,1.64,4.46,2.31a30,30,0,0,0,12.47,2.47,30.69,30.69,0,0,0,12.76-2.82,31.35,31.35,0,0,0,15.09-14.51,30.76,30.76,0,0,0-2.88-32.24,31.19,31.19,0,0,0-7.48-7.2,30.6,30.6,0,0,0-12.73-5.1,31.49,31.49,0,0,0-31.34,13.82,30.41,30.41,0,0,0-4.3,10,31.41,31.41,0,0,0-.7,8.8,30.54,30.54,0,0,0,5.62,15.92,0.92,0.92,0,0,1,.11.95q-1.53,4.44-3,8.9C2479.13,1473.92,2478.91,1474.59,2478.65,1475.38Z" transform="translate(-2426.74 -1293.21)"/><path d="M2496.4,1428.72c0.36,0,.71,0,1,0a1.4,1.4,0,0,1,1.34.77c0.47,1,.93,2,1.36,3,0.61,1.43,1.16,2.89,1.82,4.3a2.34,2.34,0,0,1-.31,2.56c-0.62.85-1.3,1.65-2,2.45a1.41,1.41,0,0,0-.17,1.87,24.93,24.93,0,0,0,9.41,9.22c1,0.56,2.14,1,3.24,1.51a1.31,1.31,0,0,0,1.81-.5l2.71-3.34a1.42,1.42,0,0,1,2-.53c2.48,1.14,4.93,2.33,7.4,3.49a1.25,1.25,0,0,1,.8,1.41,25.16,25.16,0,0,1-.64,3.38,5.2,5.2,0,0,1-2.3,2.65,9.39,9.39,0,0,1-8.14,1.68c-2-.56-3.93-1.24-5.87-1.92a29.28,29.28,0,0,1-11.39-7.71,45.69,45.69,0,0,1-6.92-9.24,12.34,12.34,0,0,1-1.59-8.93,9.89,9.89,0,0,1,3.48-5.55A3.52,3.52,0,0,1,2496.4,1428.72Z" transform="translate(-2426.74 -1293.21)"/><path d="M2646.37,1480.69v-57c0.06-.22.13-0.44,0.18-0.66a8.67,8.67,0,0,1,4.84-6.47,24.93,24.93,0,0,1,3.31-1.08h56.76l0.79,0.19a8.93,8.93,0,0,1,7.08,6.29c0.18,0.57.3,1.16,0.45,1.74v57c-0.06.22-.13,0.44-0.18,0.66a8.69,8.69,0,0,1-4.89,6.5,24.66,24.66,0,0,1-3.26,1h-56.88c-0.2-.06-0.4-0.13-0.6-0.17a8.91,8.91,0,0,1-7.28-6.81Zm58.68-34.12c0.05,0.24.1,0.43,0.13,0.62,0.2,1,.48,2.06.6,3.1a21.18,21.18,0,0,1-4.94,16.46,22.15,22.15,0,0,1-12,7.45,23.33,23.33,0,0,1-14.49-1,22.23,22.23,0,0,1-7.24-4.66,21.8,21.8,0,0,1-4.07-5.26,21.63,21.63,0,0,1-2.36-14.39c0.14-.78.33-1.54,0.51-2.35h-6.67c0,0.2,0,.37,0,0.54q0,15.1,0,30.19a3,3,0,0,0,3.2,3.17h50.54a2.94,2.94,0,0,0,3.23-3.24q0-15,0-30v-0.64H2705Zm-21.92,19.75a15,15,0,0,0,5.38-1,14.22,14.22,0,0,0,9.35-13.08,13.57,13.57,0,0,0-4.41-10.4,14.43,14.43,0,0,0-8.42-4,14.62,14.62,0,0,0-10.21,2.37,13.81,13.81,0,0,0-6,8.49,13.45,13.45,0,0,0,3,12.37A14.52,14.52,0,0,0,2683.13,1466.31Zm20.83-28.16c1.31,0,2.62,0,3.93,0a3.31,3.31,0,0,0,3.57-3.6q0-3.63,0-7.27a3.37,3.37,0,0,0-3.63-3.67q-3.81,0-7.62,0a3.36,3.36,0,0,0-3.65,3.65q0,3.63,0,7.27a3.31,3.31,0,0,0,3.6,3.62C2701.42,1438.17,2702.69,1438.16,2704,1438.16Z" transform="translate(-2426.74 -1293.21)"/><circle cx="163.17" cy="163.17" r="150.67" fill="none" stroke="#000" stroke-miterlimit="10" stroke-width="25"/><line x1="55.05" y1="267.71" x2="267.38" y2="55.38" fill="none" stroke="#000" stroke-miterlimit="10" stroke-width="25"/></svg>