<svg xmlns="http://www.w3.org/2000/svg" viewBox="0 0 296.98 161.73"><defs><style>.cls-1,.cls-2,.cls-3,.cls-4,.cls-6{fill:#0076b7;}.cls-1,.cls-2,.cls-3{stroke:#0076b7;}.cls-1,.cls-2,.cls-3,.cls-4{stroke-miterlimit:10;}.cls-1{stroke-width:6px;}.cls-3,.cls-4{stroke-width:5px;}.cls-4{stroke:#fff;}.cls-5{fill:#fff;}</style></defs><title>coastwards_1</title><g id="Layer_2" data-name="Layer 2"><g id="Layer_1-2" data-name="Layer 1"><path class="cls-1" d="M274.4,85.3,260.59,71a110.32,110.32,0,0,1-12.09,10.23Z" transform="translate(-1.5)"/><path class="cls-2" d="M236.82,94.2a116.83,116.83,0,0,1-23.24,8.14c4.55,5.86,10.49,13.47,13.21,17h35.32l-21.68-27C239.26,93,238.06,93.61,236.82,94.2Z" transform="translate(-1.5)"/><path class="cls-3" d="M85.16,59.87c-2.81-6.25-5.5-15.6-4.42-28.64C79.86,31,79,30.77,78,30.45a28.69,28.69,0,0,1-11.08-7,72.91,72.91,0,0,0-33.87-19A73.26,73.26,0,0,0,7.13,3c-.91,3.1-4.25,15.8,2.72,28.79C20,50.79,57.26,52.49,66.74,58.91a35.06,35.06,0,0,1,9.32,9.28c.95,1.39,1.62,2.64,2.16,3.6,7.37,13.27,22.12,39.74,25.68,47.55H137L120.44,93.14C104.3,85.26,91.52,74,85.16,59.87Z" transform="translate(-1.5)"/><path class="cls-4" d="M240.43,92.38a106.64,106.64,0,0,0,13.06-8.16A110.32,110.32,0,0,0,265.59,74c1.15-1.13,2.24-2.22,3.18-3.21C209.4-5,137,4.82,113.18,18.17c-14,6.27-31.76,7.4-31.76,7.4-.31,2-.53,3.84-.68,5.66-1.08,13,1.61,22.39,4.42,28.64C91.52,74,104.3,85.26,120.44,93.14c26.42,12.89,61.88,16.7,93.14,9.2a116.83,116.83,0,0,0,23.24-8.14C238.06,93.61,239.26,93,240.43,92.38Z" transform="translate(-1.5)"/><path class="cls-5" d="M27.24,17.11a5.07,5.07,0,0,1-10.12-.59,5.07,5.07,0,0,1,10.12.59Z" transform="translate(-1.5)"/><path class="cls-6" d="M28,150.27a12.11,12.11,0,0,1-1.78,6,10.85,10.85,0,0,1-4.58,4,15.22,15.22,0,0,1-6.73,1.43,12.28,12.28,0,0,1-9.83-4.18q-3.59-4.18-3.59-11.8v-1.61a20.15,20.15,0,0,1,1.62-8.37,12.51,12.51,0,0,1,4.67-5.54,12.75,12.75,0,0,1,7-2,13.42,13.42,0,0,1,9.26,3.12,12.45,12.45,0,0,1,4,8.59H20.47A5.92,5.92,0,0,0,19,135.72a5.89,5.89,0,0,0-4.18-1.3,4.53,4.53,0,0,0-4.18,2.19q-1.33,2.19-1.39,7v2.3q0,5.21,1.27,7.44a4.62,4.62,0,0,0,4.38,2.23,5.76,5.76,0,0,0,4-1.27,5.48,5.48,0,0,0,1.48-4Z" transform="translate(-1.5)"/><path class="cls-6" d="M58.44,145.69a19.64,19.64,0,0,1-1.72,8.42,12.94,12.94,0,0,1-4.88,5.64,13.32,13.32,0,0,1-7.21,2,13.51,13.51,0,0,1-7.18-1.91,12.9,12.9,0,0,1-4.88-5.46,19.06,19.06,0,0,1-1.84-8.15v-1.83a19.71,19.71,0,0,1,1.71-8.43,12.89,12.89,0,0,1,4.89-5.64,14.15,14.15,0,0,1,14.43,0,13.12,13.12,0,0,1,4.9,5.6,19.14,19.14,0,0,1,1.77,8.32Zm-7.76-1.36q0-4.85-1.58-7.36a5,5,0,0,0-4.51-2.51q-5.74,0-6.07,8.85l0,2.39q0,4.78,1.54,7.35a5,5,0,0,0,4.59,2.57,5,5,0,0,0,4.46-2.52q1.57-2.52,1.59-7.26Z" transform="translate(-1.5)"/><path class="cls-6" d="M79.9,155.21H69.44l-1.83,6.08H59.46l11.61-32.53h7.18L90,161.28h-8.2Zm-8.63-6.05h6.81l-3.42-11.28Z" transform="translate(-1.5)"/><path class="cls-6" d="M108.59,152.64a3.26,3.26,0,0,0-1.19-2.68,14.59,14.59,0,0,0-4.16-2,39.2,39.2,0,0,1-4.87-2q-6.16-3.1-6.16-8.53a7.79,7.79,0,0,1,1.53-4.77,9.94,9.94,0,0,1,4.34-3.22,16.49,16.49,0,0,1,6.31-1.15,14.43,14.43,0,0,1,6.12,1.25,9.76,9.76,0,0,1,4.21,3.56,9.49,9.49,0,0,1,1.5,5.28h-7.61a4,4,0,0,0-1.18-3.08,4.55,4.55,0,0,0-3.21-1.09,5.11,5.11,0,0,0-3.23.93,2.77,2.77,0,0,0,.12,4.62,16.23,16.23,0,0,0,4.59,2.1,27.73,27.73,0,0,1,5.39,2.33q5.13,3,5.13,8.38a8,8,0,0,1-3.13,6.7q-3.13,2.43-8.59,2.44a16.64,16.64,0,0,1-7-1.42,10.56,10.56,0,0,1-4.7-3.89,10.33,10.33,0,0,1-1.58-5.69h7.66a5.07,5.07,0,0,0,1.32,3.85,6.1,6.1,0,0,0,4.27,1.24,4.82,4.82,0,0,0,3-.84A2.79,2.79,0,0,0,108.59,152.64Z" transform="translate(-1.5)"/><path class="cls-6" d="M145,134.81h-9.5v26.47h-7.63V134.81h-9.33v-6.05H145Z" transform="translate(-1.5)"/><path class="cls-6" d="M173.08,149.15l3.63-20.4h7.57l-6.72,32.53h-7.92l-4.24-18.54-4.15,18.54h-7.9l-6.74-32.53h7.59l3.63,20.4,4.35-20.4h6.48Z" transform="translate(-1.5)"/><path class="cls-6" d="M204.31,155.21H193.85L192,161.28h-8.16l11.61-32.53h7.18l11.7,32.53h-8.2Zm-8.63-6.05h6.81l-3.42-11.28Z" transform="translate(-1.5)"/><path class="cls-6" d="M228.43,149.78h-4.13v11.51h-7.63V128.75h12.46q5.63,0,8.81,2.57a8.8,8.8,0,0,1,3.18,7.25,10.8,10.8,0,0,1-1.34,5.62,9.56,9.56,0,0,1-4.19,3.62l6.61,13.13v.34H234Zm-4.13-6h4.83a4.27,4.27,0,0,0,3.27-1.18,4.62,4.62,0,0,0,1.1-3.28,4.67,4.67,0,0,0-1.11-3.3,4.23,4.23,0,0,0-3.26-1.2h-4.83Z" transform="translate(-1.5)"/><path class="cls-6" d="M245.72,161.28V128.75h10.2a14.7,14.7,0,0,1,7.55,2,13.59,13.59,0,0,1,5.23,5.52,17,17,0,0,1,1.9,8v1.5a17.12,17.12,0,0,1-1.84,8,13.64,13.64,0,0,1-5.18,5.54,14.37,14.37,0,0,1-7.45,2Zm7.63-26.47v20.44H256a5.88,5.88,0,0,0,5-2.4q1.76-2.4,1.76-7.14V144.3q0-4.71-1.76-7.1a6,6,0,0,0-5.13-2.39Z" transform="translate(-1.5)"/><path class="cls-6" d="M290.84,152.64a3.26,3.26,0,0,0-1.19-2.68,14.6,14.6,0,0,0-4.17-2,39.18,39.18,0,0,1-4.87-2q-6.16-3.1-6.16-8.53a7.8,7.8,0,0,1,1.53-4.77,10,10,0,0,1,4.34-3.22,16.5,16.5,0,0,1,6.31-1.15,14.43,14.43,0,0,1,6.12,1.25,9.75,9.75,0,0,1,4.21,3.56,9.48,9.48,0,0,1,1.5,5.28h-7.61a4,4,0,0,0-1.19-3.08,4.54,4.54,0,0,0-3.21-1.09,5.11,5.11,0,0,0-3.23.93,2.77,2.77,0,0,0,.12,4.62,16.23,16.23,0,0,0,4.59,2.1,27.73,27.73,0,0,1,5.39,2.33q5.13,3,5.13,8.38a8,8,0,0,1-3.13,6.7q-3.13,2.43-8.59,2.44a16.65,16.65,0,0,1-7-1.42,10.56,10.56,0,0,1-4.7-3.89,10.33,10.33,0,0,1-1.58-5.69h7.66a5.06,5.06,0,0,0,1.32,3.85,6.1,6.1,0,0,0,4.27,1.24,4.82,4.82,0,0,0,3-.84A2.79,2.79,0,0,0,290.84,152.64Z" transform="translate(-1.5)"/></g></g></svg>