<svg xmlns="http://www.w3.org/2000/svg" viewBox="0 0 321.34 321.34"><defs><style>.cls-1{fill:#0076b7;}.cls-2{fill:none;stroke:#0076b7;stroke-miterlimit:10;stroke-width:20px;}</style></defs><title>material_5</title><g id="Layer_2" data-name="Layer 2"><g id="Layer_1-2" data-name="Layer 1"><path class="cls-1" d="M149.31,57.26A25.59,25.59,0,0,0,135.16,52a26.21,26.21,0,0,0-18.25,6.5,21,21,0,0,1,11.75-3c9.18.46,14.65,7.07,15.54,8.19-1.51-.62-17-6.72-30.79,2.31a32,32,0,0,0-12.25,15.75c1.7-2,10.58-11.84,25-12.5a34.47,34.47,0,0,1,18,4.25c-1.08-.08-10.52-.6-17.25,7-7,7.85-5,17.53-4.75,18.5a31.53,31.53,0,0,1,11.5-16.5,31.11,31.11,0,0,1,15-5.75c-.28.28-3.89,4.12-2.75,9.25a10.26,10.26,0,0,0,8.5,7.75,8.45,8.45,0,0,1,.42-15.81l14.67,38.56h21.67l-27-42.67A13.25,13.25,0,0,1,173.91,71c7.09.93,10.1,7.66,10.25,8a16.52,16.52,0,0,0-22.67-14.5c.72-1.05,3.55-4.92,8.42-5.75,5.84-1,12.28,2.78,15.25,9.5a18.27,18.27,0,0,0-28.33-9.75c-1.57-2.89-1.73-6.25-.17-8.5,2.3-3.33,8.34-4.25,13-.5A11.41,11.41,0,0,0,157.91,44C152.43,45.11,148.36,50.89,149.31,57.26Z"/><path class="cls-1" d="M303.41,126,298,106.28h0c-137.26,4.54-185.53,13.59-186.22,24.21-.65,10,40.81,17.2,40.67,34-.08,9.93-14.67,17.17-57.33,36.67C70.17,212.58,47,223,25.93,232.3A150.7,150.7,0,0,0,303.41,126ZM219.48,253.89a13.42,13.42,0,0,1-16.95,0,10.46,10.46,0,0,1,0-15.42,13.42,13.42,0,0,1,16.95,0,10.46,10.46,0,0,1,0,15.42Zm20.09-56.72a32.39,32.39,0,0,1-6.73,8.82l-7.3,6.79a17.16,17.16,0,0,0-4.32,6.13,24.23,24.23,0,0,0-1.33,8H201.73q0-9.27,2.09-14.63a22.89,22.89,0,0,1,6.79-9.3,45.08,45.08,0,0,0,7.14-7.21,11.76,11.76,0,0,0,2.44-7.2q0-9.58-8.25-9.58a7.66,7.66,0,0,0-6.16,2.79,11.87,11.87,0,0,0-2.48,7.55H181.87q.13-12.69,8-19.77T212,162.45q14.15,0,21.93,6.54t7.78,18.6A21.66,21.66,0,0,1,239.57,197.17Z"/><circle class="cls-2" cx="160.67" cy="160.67" r="150.67"/></g></g></svg>