<svg xmlns="http://www.w3.org/2000/svg" viewBox="0 0 321.34 321.34"><defs><style>.cls-1{fill:#fff;}.cls-2{fill:none;stroke:#fff;stroke-miterlimit:10;stroke-width:20px;}</style></defs><title>original-white</title><g id="Layer_2" data-name="Layer 2"><g id="Layer_1-2" data-name="Layer 1"><path class="cls-1" d="M46.28,228.67v-76.5c.08-.3.18-.59.24-.89a11.63,11.63,0,0,1,6.5-8.69,33.47,33.47,0,0,1,4.44-1.44h76.19l1.06.25a12,12,0,0,1,9.51,8.44c.25.76.41,1.55.61,2.33v76.5c-.08.3-.18.59-.24.89a11.66,11.66,0,0,1-6.56,8.72,33.1,33.1,0,0,1-4.37,1.41H57.3c-.27-.08-.54-.17-.81-.23-5.08-1.1-8.43-4-9.78-9.14ZM125,182.87c.07.32.13.57.18.83.27,1.39.65,2.76.8,4.16A28.44,28.44,0,0,1,119.4,210a29.74,29.74,0,0,1-16.07,10,31.31,31.31,0,0,1-19.45-1.31,29.84,29.84,0,0,1-9.72-6.26,29.26,29.26,0,0,1-5.46-7.06A29,29,0,0,1,65.53,186c.19-1,.45-2.07.69-3.16h-9c0,.27-.06.5-.06.73q0,20.26,0,40.53a4,4,0,0,0,4.3,4.26h67.84c2.76,0,4.33-1.58,4.33-4.35q0-20.15,0-40.29v-.85ZM95.62,209.38a20.19,20.19,0,0,0,7.23-1.32A19.09,19.09,0,0,0,115.4,190.5a18.22,18.22,0,0,0-5.92-14,19.37,19.37,0,0,0-11.3-5.33,19.63,19.63,0,0,0-13.7,3.18,18.53,18.53,0,0,0-8.05,11.4,18.05,18.05,0,0,0,4,16.61A19.49,19.49,0,0,0,95.62,209.38Zm28-37.79c1.76,0,3.51,0,5.27,0a4.44,4.44,0,0,0,4.79-4.83q0-4.88,0-9.75c0-3.06-1.82-4.91-4.87-4.93q-5.11,0-10.23,0c-3.07,0-4.89,1.83-4.9,4.9q0,4.88,0,9.75c0,3.07,1.77,4.84,4.83,4.86C120.17,171.6,121.87,171.59,123.58,171.59Z"/><path class="cls-1" d="M263,202.51a45.9,45.9,0,0,1-13.2,3.55,23,23,0,0,0,10.15-12.65,46,46,0,0,1-14.6,5.5,23,23,0,0,0-39.21,20.75,65.17,65.17,0,0,1-47.2-24.2,23,23,0,0,0,7,30.68,22.86,22.86,0,0,1-10.38-2.92c0,.1,0,.19,0,.29a23,23,0,0,0,18.31,22.59,23,23,0,0,1-10.37.34,23,23,0,0,0,21.37,16,46.34,46.34,0,0,1-34,9.35,65,65,0,0,0,35.14,10.48c42.22.2,65.47-34.67,65.61-65q0-1.49-.05-3A46.63,46.63,0,0,0,263,202.51Z"/><path class="cls-1" d="M280.86,101.16v68.47c-.07.25-.15.49-.2.74a17,17,0,0,1-12.46,13.45c-.67.2-1.35.34-2,.51H247.25c0-.26-.07-.51-.07-.77q0-17.62,0-35.25v-.94h1c4.79,0,9.59,0,14.38,0,.69,0,.94-.15.93-.9,0-4.85,0-9.69,0-14.54,0-.28,0-.55,0-.93H247.25c0-2.52-.12-5,0-7.36s1.6-3.48,3.88-3.48h11.25c.33,0,.66,0,1-.05V103.88l-.75,0H250.55a16.22,16.22,0,0,0-9.58,3,20.6,20.6,0,0,0-8.69,14.25,76.66,76.66,0,0,0-.35,9c0,.3,0,.6,0,1H220c0,.26-.06.43-.06.61,0,5,0,10,0,14.93,0,.67.28.76.84.76,3.39,0,6.77,0,10.16,0h1v37H197.69c-.22-.06-.44-.14-.66-.19q-10.44-2.25-13.53-12.48c-.2-.67-.34-1.35-.51-2q0-34.24,0-68.47c.09-.35.19-.69.28-1A16.92,16.92,0,0,1,195.43,87c.74-.23,1.5-.38,2.26-.57h68.47c.2.06.39.13.59.18q10.55,2.23,13.62,12.56C280.56,99.85,280.7,100.51,280.86,101.16Z"/><path class="cls-1" d="M125.06,31.89l6.27-.08A5.15,5.15,0,0,0,132,32a50.65,50.65,0,0,1,15.32,3.39A50.15,50.15,0,0,1,169,51.49a48.81,48.81,0,0,1,10,23.48c.16,1.17.35,2.33.52,3.49l.08,6.27a5.31,5.31,0,0,0-.15.71,51.17,51.17,0,0,1-3.05,14.22,50.22,50.22,0,0,1-11.25,17.67,49.31,49.31,0,0,1-10.7,8.32,51.2,51.2,0,0,1-49,1.22,1.78,1.78,0,0,0-1.23-.09c-3,1-6,2-8.93,2.94-4.38,1.45-8.77,2.9-13.14,4.36-1.66.56-3.3,1.16-5,1.74l-.33-.33c.17-.4.38-.78.51-1.19,1.09-3.32,2.15-6.64,3.23-10,1.62-5,3.27-10,4.86-15a1.93,1.93,0,0,0-.14-1.3c-.63-1.28-1.37-2.5-2-3.77a50,50,0,0,1,4.55-51.78,50.8,50.8,0,0,1,33.54-20.1Zm-35.67,91.3c.78-.24,1.36-.41,1.93-.6,4.51-1.49,9-3,13.53-4.5a1.94,1.94,0,0,1,1.69.19c2,1.06,4,2.18,6.1,3.07a40.75,40.75,0,0,0,17,3.16,41.72,41.72,0,0,0,17.29-4,42.61,42.61,0,0,0,20.27-20,41.81,41.81,0,0,0-4.44-43.77A42.39,42.39,0,0,0,152.47,47a41.59,41.59,0,0,0-17.39-6.72A42.81,42.81,0,0,0,92.7,59.62,41.34,41.34,0,0,0,87,73.34a42.69,42.69,0,0,0-.81,12,41.52,41.52,0,0,0,7.91,21.54,1.25,1.25,0,0,1,.16,1.29q-2,6.07-4,12.14C90,121.2,89.73,122.11,89.39,123.19Z"/><path class="cls-1" d="M112.75,59.48c.49,0,1,0,1.43,0a1.91,1.91,0,0,1,1.84,1c.65,1.36,1.29,2.73,1.9,4.11.86,1.93,1.63,3.91,2.55,5.81a3.18,3.18,0,0,1-.38,3.48c-.83,1.16-1.75,2.26-2.65,3.36a1.92,1.92,0,0,0-.2,2.55,33.88,33.88,0,0,0,12.95,12.38c1.43.75,2.93,1.39,4.43,2a1.79,1.79,0,0,0,2.45-.7q1.83-2.28,3.63-4.58c.83-1.05,1.49-1.3,2.73-.75,3.39,1.51,6.74,3.09,10.12,4.62a1.69,1.69,0,0,1,1.12,1.9,34.2,34.2,0,0,1-.82,4.6,7.07,7.07,0,0,1-3.08,3.64c-3.33,2.36-7,3.5-11,2.42-2.7-.72-5.36-1.62-8-2.52a39.81,39.81,0,0,1-15.6-10.29,62.11,62.11,0,0,1-9.56-12.44,16.77,16.77,0,0,1-2.31-12.11,13.44,13.44,0,0,1,4.64-7.6A4.78,4.78,0,0,1,112.75,59.48Z"/><circle class="cls-2" cx="160.67" cy="160.67" r="150.67"/><line class="cls-2" x1="58.2" y1="261.62" x2="261.62" y2="58.2"/></g></g></svg>